<svg width="48" height="48" viewBox="0 0 48 48" fill="none" xmlns="http://www.w3.org/2000/svg">
<path d="M10.7692 41.9999C10.0006 41.9999 9.34695 41.7305 8.80815 41.1917C8.26938 40.6529 8 39.9992 8 39.2307V12.3076C8 11.539 8.26938 10.8853 8.80815 10.3465C9.34695 9.80771 10.0006 9.53833 10.7692 9.53833H14.9039V5.53833H16.6923V9.53833H31.4616V5.53833H33.1346V9.53833H37.2308C37.9994 9.53833 38.653 9.80771 39.1918 10.3465C39.7306 10.8853 40 11.539 40 12.3076V39.2307C40 39.9992 39.7306 40.6529 39.1918 41.1917C38.653 41.7305 37.9994 41.9999 37.2308 41.9999H10.7692ZM10.7692 40.4614H37.2308C37.5385 40.4614 37.8205 40.3332 38.077 40.0768C38.3334 39.8204 38.4616 39.5383 38.4616 39.2307V20.9999H9.53845V39.2307C9.53845 39.5383 9.66665 39.8204 9.92305 40.0768C10.1795 40.3332 10.4615 40.4614 10.7692 40.4614ZM9.53845 19.4614H38.4616V12.3076C38.4616 11.9999 38.3334 11.7178 38.077 11.4614C37.8205 11.205 37.5385 11.0768 37.2308 11.0768H10.7692C10.4615 11.0768 10.1795 11.205 9.92305 11.4614C9.66665 11.7178 9.53845 11.9999 9.53845 12.3076V19.4614ZM24 28.3076C23.5872 28.3076 23.2276 28.1544 22.9212 27.8479C22.6148 27.5415 22.4615 27.1819 22.4615 26.7691C22.4615 26.3563 22.6148 25.9967 22.9212 25.6903C23.2276 25.3838 23.5872 25.2306 24 25.2306C24.4128 25.2306 24.7724 25.3838 25.0788 25.6903C25.3853 25.9967 25.5385 26.3563 25.5385 26.7691C25.5385 27.1819 25.3853 27.5415 25.0788 27.8479C24.7724 28.1544 24.4128 28.3076 24 28.3076ZM16 28.3076C15.5872 28.3076 15.2276 28.1544 14.9212 27.8479C14.6148 27.5415 14.4615 27.1819 14.4615 26.7691C14.4615 26.3563 14.6148 25.9967 14.9212 25.6903C15.2276 25.3838 15.5872 25.2306 16 25.2306C16.4128 25.2306 16.7724 25.3838 17.0788 25.6903C17.3853 25.9967 17.5385 26.3563 17.5385 26.7691C17.5385 27.1819 17.3853 27.5415 17.0788 27.8479C16.7724 28.1544 16.4128 28.3076 16 28.3076ZM32 28.3076C31.5872 28.3076 31.2275 28.1544 30.9211 27.8479C30.6147 27.5415 30.4616 27.1819 30.4616 26.7691C30.4616 26.3563 30.6147 25.9967 30.9211 25.6903C31.2275 25.3838 31.5872 25.2306 32 25.2306C32.4128 25.2306 32.7725 25.3838 33.0789 25.6903C33.3853 25.9967 33.5385 26.3563 33.5385 26.7691C33.5385 27.1819 33.3853 27.5415 33.0789 27.8479C32.7725 28.1544 32.4128 28.3076 32 28.3076ZM24 35.9999C23.5872 35.9999 23.2276 35.8467 22.9212 35.5403C22.6148 35.2338 22.4615 34.8742 22.4615 34.4614C22.4615 34.0486 22.6148 33.689 22.9212 33.3826C23.2276 33.0761 23.5872 32.9229 24 32.9229C24.4128 32.9229 24.7724 33.0761 25.0788 33.3826C25.3853 33.689 25.5385 34.0486 25.5385 34.4614C25.5385 34.8742 25.3853 35.2338 25.0788 35.5403C24.7724 35.8467 24.4128 35.9999 24 35.9999ZM16 35.9999C15.5872 35.9999 15.2276 35.8467 14.9212 35.5403C14.6148 35.2338 14.4615 34.8742 14.4615 34.4614C14.4615 34.0486 14.6148 33.689 14.9212 33.3826C15.2276 33.0761 15.5872 32.9229 16 32.9229C16.4128 32.9229 16.7724 33.0761 17.0788 33.3826C17.3853 33.689 17.5385 34.0486 17.5385 34.4614C17.5385 34.8742 17.3853 35.2338 17.0788 35.5403C16.7724 35.8467 16.4128 35.9999 16 35.9999ZM32 35.9999C31.5872 35.9999 31.2275 35.8467 30.9211 35.5403C30.6147 35.2338 30.4616 34.8742 30.4616 34.4614C30.4616 34.0486 30.6147 33.689 30.9211 33.3826C31.2275 33.0761 31.5872 32.9229 32 32.9229C32.4128 32.9229 32.7725 33.0761 33.0789 33.3826C33.3853 33.689 33.5385 34.0486 33.5385 34.4614C33.5385 34.8742 33.3853 35.2338 33.0789 35.5403C32.7725 35.8467 32.4128 35.9999 32 35.9999Z" fill="white"/>
</svg>
