<svg width="48" height="48" viewBox="0 0 48 48" fill="none" xmlns="http://www.w3.org/2000/svg">
<path d="M31.6577 32.8039L32.7923 31.6693L24.8423 23.6683V13.6961H23.3039V24.3307L31.6577 32.8039ZM24.0067 42C21.5253 42 19.1954 41.5277 17.017 40.583C14.8386 39.6384 12.9305 38.348 11.2929 36.712C9.65538 35.0759 8.36383 33.1697 7.4183 30.9933C6.47277 28.8169 6 26.4881 6 24.0067C6 21.5253 6.47232 19.1954 7.41695 17.017C8.36162 14.8386 9.65198 12.9306 11.2881 11.293C12.9241 9.65538 14.8303 8.36383 17.0067 7.4183C19.1831 6.47277 21.5119 6 23.9933 6C26.4747 6 28.8046 6.47232 30.983 7.41695C33.1614 8.36162 35.0695 9.65198 36.7071 11.288C38.3446 12.9241 39.6362 14.8303 40.5817 17.0067C41.5272 19.1831 42 21.5119 42 23.9933C42 26.4747 41.5277 28.8046 40.583 30.983C39.6384 33.1614 38.348 35.0695 36.712 36.7071C35.0759 38.3446 33.1697 39.6362 30.9933 40.5817C28.8169 41.5272 26.4881 42 24.0067 42ZM24 40.4616C28.5385 40.4616 32.4167 38.8526 35.6346 35.6346C38.8526 32.4167 40.4616 28.5385 40.4616 24C40.4616 19.4615 38.8526 15.5833 35.6346 12.3654C32.4167 9.14743 28.5385 7.53845 24 7.53845C19.4615 7.53845 15.5833 9.14743 12.3654 12.3654C9.14743 15.5833 7.53845 19.4615 7.53845 24C7.53845 28.5385 9.14743 32.4167 12.3654 35.6346C15.5833 38.8526 19.4615 40.4616 24 40.4616Z" fill="white"/>
</svg>
