<svg width="48" height="48" viewBox="0 0 48 48" fill="none" xmlns="http://www.w3.org/2000/svg">
<path d="M4.30758 38.9231C4.08835 38.9231 3.90533 38.8488 3.75853 38.7002C3.61173 38.5516 3.53833 38.3664 3.53833 38.1444C3.53833 37.9225 3.61173 37.7404 3.75853 37.5981C3.90533 37.4558 4.08833 37.3847 4.30753 37.3847H43.6922C43.9114 37.3847 44.0944 37.459 44.2412 37.6076C44.388 37.7562 44.4614 37.9414 44.4614 38.1633C44.4614 38.3852 44.388 38.5674 44.2412 38.7097C44.0944 38.852 43.9114 38.9231 43.6922 38.9231H4.30758ZM8.76908 34.9231C8.00051 34.9231 7.34683 34.6537 6.80803 34.1149C6.26926 33.5762 5.99988 32.9225 5.99988 32.1539V11.6923C5.99988 10.9237 6.26926 10.2701 6.80803 9.7313C7.34683 9.1925 8.00051 8.9231 8.76908 8.9231H39.2307C39.9992 8.9231 40.6529 9.1925 41.1917 9.7313C41.7305 10.2701 41.9999 10.9237 41.9999 11.6923V32.1539C41.9999 32.9225 41.7305 33.5762 41.1917 34.1149C40.6529 34.6537 39.9992 34.9231 39.2307 34.9231H8.76908ZM8.76908 33.3846H39.2307C39.5383 33.3846 39.8204 33.2564 40.0768 33C40.3332 32.7436 40.4614 32.4616 40.4614 32.1539V11.6923C40.4614 11.3846 40.3332 11.1026 40.0768 10.8462C39.8204 10.5898 39.5383 10.4616 39.2307 10.4616H8.76908C8.46141 10.4616 8.17936 10.5898 7.92293 10.8462C7.66653 11.1026 7.53833 11.3846 7.53833 11.6923V32.1539C7.53833 32.4616 7.66653 32.7436 7.92293 33C8.17936 33.2564 8.46141 33.3846 8.76908 33.3846Z" fill="white"/>
</svg>
