<svg width="48" height="48" viewBox="0 0 48 48" fill="none" xmlns="http://www.w3.org/2000/svg">
<path d="M5.13086 37.2308V34.3385C5.13086 33.4026 5.37316 32.6007 5.85776 31.9327C6.34239 31.2648 7.02759 30.7348 7.91336 30.3428C9.80966 29.5092 11.5725 28.859 13.202 28.3923C14.8315 27.9257 16.8142 27.6923 19.1501 27.6923C21.486 27.6923 23.4604 27.9257 25.0732 28.3923C26.686 28.859 28.4534 29.5092 30.3753 30.3428C31.2354 30.7348 31.9097 31.2648 32.3982 31.9327C32.8866 32.6007 33.1309 33.4026 33.1309 34.3385V37.2308H5.13086ZM36.6694 37.2308V34.4539C36.6694 32.9949 36.3739 31.7509 35.7829 30.7219C35.192 29.6929 34.4259 28.8381 33.4847 28.1577C34.7334 28.3987 35.9386 28.7007 37.1001 29.0635C38.2616 29.4263 39.284 29.826 40.1671 30.2625C40.9583 30.6901 41.6065 31.27 42.1117 32.0023C42.6168 32.7347 42.8694 33.5519 42.8694 34.4539V37.2308H36.6694ZM19.1501 22.7577C17.4873 22.7577 16.1068 22.2087 15.0088 21.1106C13.9107 20.0125 13.3616 18.6321 13.3616 16.9693C13.3616 15.3065 13.9107 13.9324 15.0088 12.8471C16.1068 11.7619 17.4873 11.2192 19.1501 11.2192C20.8129 11.2192 22.187 11.7619 23.2722 12.8471C24.3575 13.9324 24.9001 15.3065 24.9001 16.9693C24.9001 18.6321 24.3575 20.0125 23.2722 21.1106C22.187 22.2087 20.8129 22.7577 19.1501 22.7577ZM32.7463 16.9693C32.7463 18.6321 32.2036 20.0125 31.1184 21.1106C30.0331 22.2087 28.6545 22.7577 26.9825 22.7577C26.8942 22.7577 26.8174 22.752 26.7521 22.7404C26.6867 22.7289 26.6116 22.7078 26.527 22.677C27.1558 21.9523 27.6316 21.1067 27.9544 20.1402C28.2772 19.1738 28.4386 18.1216 28.4386 16.9837C28.4386 15.8459 28.2623 14.8173 27.9097 13.8981C27.5571 12.9789 27.0962 12.1 26.527 11.2616C26.586 11.2641 26.661 11.2577 26.7521 11.2423C26.8431 11.2269 26.9181 11.2192 26.9771 11.2192C28.6527 11.2192 30.0331 11.7619 31.1184 12.8471C32.2036 13.9324 32.7463 15.3065 32.7463 16.9693ZM6.66931 35.6923H31.5924V34.3385C31.5924 33.8052 31.4469 33.3205 31.1559 32.8846C30.8649 32.4487 30.3835 32.0539 29.7117 31.7C27.927 30.8129 26.2565 30.1795 24.7001 29.8C23.1437 29.4205 21.2937 29.2308 19.1501 29.2308C17.0065 29.2308 15.1546 29.4205 13.5943 29.8C12.0341 30.1795 10.3616 30.8129 8.57701 31.7C7.90521 32.0539 7.41931 32.4487 7.11931 32.8846C6.81931 33.3205 6.66931 33.8052 6.66931 34.3385V35.6923ZM19.1309 21.2193C20.3283 21.2193 21.3328 20.8135 22.1443 20.0019C22.9559 19.1904 23.3617 18.1859 23.3617 16.9885C23.3617 15.7911 22.9559 14.7866 22.1443 13.975C21.3328 13.1635 20.3283 12.7577 19.1309 12.7577C17.9334 12.7577 16.9289 13.1635 16.1174 13.975C15.3059 14.7866 14.9001 15.7911 14.9001 16.9885C14.9001 18.1859 15.3059 19.1904 16.1174 20.0019C16.9289 20.8135 17.9334 21.2193 19.1309 21.2193Z" fill="white"/>
</svg>
