<svg width="420" height="180" viewBox="0 0 420 180" fill="none" xmlns="http://www.w3.org/2000/svg">
<path d="M252.066 75.6553L221.919 93.5999L252.066 110.827L282.213 93.5999L252.066 75.6553Z" fill="white" stroke="black" stroke-width="0.248234"/>
<g filter="url(#filter0_i_21_1135)">
<path d="M221.919 57.7127L252.066 39.768L252.066 75.6574L221.919 93.602L221.919 57.7127Z" fill="#A8A8A8"/>
</g>
<path d="M221.919 57.7127L252.066 39.768L252.066 75.6574L221.919 93.602L221.919 57.7127Z" stroke="black" stroke-width="0.248234"/>
<g filter="url(#filter1_i_21_1135)">
<path d="M236.992 136.67L206.846 119.443L206.845 153.896L236.993 171.123L236.992 136.67Z" fill="#4C8046"/>
</g>
<path d="M236.992 136.67L206.846 119.443L206.845 153.896L236.993 171.123L236.992 136.67Z" stroke="black" stroke-width="0.248234"/>
<g filter="url(#filter2_i_21_1135)">
<path d="M191.772 57.7127L161.625 39.768L161.625 75.6573L191.772 93.602L191.772 57.7127Z" fill="#4C8046"/>
</g>
<path d="M191.772 57.7127L161.625 39.768L161.625 75.6573L191.772 93.602L191.772 57.7127Z" stroke="black" stroke-width="0.248234"/>
<g filter="url(#filter3_i_21_1135)">
<path d="M176.698 136.669L206.845 119.443L206.846 153.896L176.698 171.123L176.698 136.669Z" fill="#A8A8A8"/>
</g>
<path d="M176.698 136.669L206.845 119.443L206.846 153.896L176.698 171.123L176.698 136.669Z" stroke="black" stroke-width="0.248234"/>
<path d="M206.846 102.215L176.699 119.442L206.846 136.669L236.993 119.442L206.846 102.215Z" fill="white" stroke="black" stroke-width="0.248234"/>
<g filter="url(#filter4_i_21_1135)">
<path d="M206.845 136.667V153.894L236.992 136.667V171.121L252.066 162.507V128.054L282.213 110.827V93.6L252.066 110.827V75.6553L236.992 84.2687V119.44L206.845 136.667Z" fill="#A8A8A8"/>
</g>
<path d="M206.845 136.667V153.894L236.992 136.667V171.121L252.066 162.507V128.054L282.213 110.827V93.6L252.066 110.827V75.6553L236.992 84.2687V119.44L206.845 136.667Z" stroke="black" stroke-width="0.248234"/>
<path d="M176.699 31.1538L161.626 39.7673L191.773 57.7119L161.626 75.6566L176.699 84.27L206.846 66.3253L236.993 84.27L252.067 75.6566L221.92 57.7119L252.067 39.7673L236.993 31.1538L206.846 49.0985L176.699 31.1538Z" fill="white" stroke="black" stroke-width="0.248234"/>
<path d="M236.992 84.2707L206.845 66.3258L206.845 102.215L236.992 119.442L236.992 84.2707Z" fill="#4C8046" stroke="black" stroke-width="0.248234"/>
<path d="M161.625 75.6553L131.478 93.5999L161.625 110.827L191.772 93.5999L161.625 75.6553Z" fill="white" stroke="black" stroke-width="0.248234"/>
<path d="M176.699 84.2703L206.846 66.3257L206.846 102.215L176.699 119.442L176.699 84.2703Z" fill="#A8A8A8" stroke="black" stroke-width="0.248234"/>
<g filter="url(#filter5_i_21_1135)">
<path d="M206.846 136.667V153.894L176.699 136.667V171.121L161.625 162.507V128.054L131.478 110.796V93.5999L161.625 110.827V75.6553L176.699 84.2687V119.44L206.846 136.667Z" fill="#4C8046"/>
</g>
<path d="M206.846 136.667V153.894L176.699 136.667V171.121L161.625 162.507V128.054L131.478 110.796V93.5999L161.625 110.827V75.6553L176.699 84.2687V119.44L206.846 136.667Z" stroke="black" stroke-width="0.248234"/>
<path d="M9.96387 134.747C8.2879 133.229 7.84519 131.901 8.63574 130.763L11.1023 127.205C11.9561 125.972 13.3316 126.067 15.2289 127.49C17.7271 129.356 20.3201 130.889 23.008 132.091C25.7274 133.293 29.0161 133.894 32.874 133.894C35.72 133.894 38.1233 133.467 40.0838 132.613C42.0444 131.759 43.6097 130.542 44.7797 128.961C45.9814 127.348 46.5822 125.403 46.5822 123.126C46.5822 121.482 46.3292 119.964 45.8232 118.573C45.3489 117.15 44.5742 115.964 43.499 115.015C42.4239 114.067 41.3013 113.323 40.1313 112.786C38.2023 111.9 35.3089 110.873 31.451 109.703C27.6248 108.533 24.2728 107.268 21.3952 105.908C18.5492 104.548 16.2725 102.904 14.5649 100.975C12.8889 99.0461 11.7663 97.0697 11.1971 95.0459C10.6596 92.9905 10.3908 90.6504 10.3908 88.0258C10.3908 84.0098 11.5608 80.5472 13.9008 77.638C16.2408 74.7287 19.1026 72.7998 22.4862 71.8511C25.9014 70.9025 29.364 70.4281 32.874 70.4281C36.89 70.4281 40.3843 70.9499 43.3567 71.9934C46.3292 73.037 48.9855 74.3967 51.3255 76.0727C52.9698 77.2427 53.3493 78.4759 52.4639 79.7724L50.0448 83.2351C49.3175 84.2786 47.8945 84.0572 45.7758 82.571C44.1631 81.4326 42.1867 80.3733 39.8467 79.393C37.5383 78.3811 35.2457 77.8751 32.9689 77.8751C30.0597 77.8751 27.6406 78.223 25.7116 78.9187C23.7827 79.5827 22.2648 80.7211 21.1581 82.3338C20.0513 83.9466 19.4979 85.8123 19.4979 87.9309C19.4979 89.2591 19.6244 90.4923 19.8774 91.6307C20.1303 92.7375 20.7786 93.8759 21.8221 95.0459C22.8657 96.2159 24.1305 97.1171 25.6168 97.7496C27.609 98.6034 30.6921 99.6153 34.8662 100.785C39.0719 101.924 42.7401 103.331 45.8707 105.007C48.7799 106.556 50.867 108.185 52.1318 109.892C53.4283 111.568 54.4244 113.402 55.1201 115.395C55.8474 117.355 56.2111 119.569 56.2111 122.035C56.2111 126.526 55.0569 130.273 52.7485 133.277C50.4401 136.281 47.7048 138.368 44.5426 139.538C41.3804 140.708 37.4118 141.293 32.6369 141.293C26.9133 141.293 22.17 140.629 18.4069 139.301C14.6439 137.973 11.8296 136.455 9.96387 134.747ZM68.2116 113.924V74.4599C68.2116 72.7207 69.0022 71.8511 70.5833 71.8511H74.9471C76.5282 71.8511 77.3188 72.7207 77.3188 74.4599V112.501C77.3188 121.355 78.5679 127.142 81.066 129.862C83.5958 132.55 87.7066 133.894 93.3986 133.894C99.0906 133.894 103.186 132.55 105.684 129.862C108.214 127.142 109.478 121.355 109.478 112.501V74.4599C109.478 72.7207 110.269 71.8511 111.85 71.8511H116.214C117.795 71.8511 118.586 72.7207 118.586 74.4599V113.924C118.586 123.948 116.277 131.016 111.66 135.127C107.075 139.238 100.988 141.293 93.3986 141.293C85.8093 141.293 79.7063 139.238 75.0894 135.127C70.5042 131.016 68.2116 123.948 68.2116 113.924Z" fill="#4C8046"/>
<path d="M9.96387 134.747L11.1968 133.4L11.1897 133.394L9.96387 134.747ZM8.63574 130.763L10.1356 131.805L10.1364 131.803L8.63574 130.763ZM11.1023 127.205L12.6029 128.246L12.6037 128.245L11.1023 127.205ZM15.2289 127.49L14.1333 128.951L14.1362 128.953L15.2289 127.49ZM23.008 132.091L22.2627 133.758L22.2699 133.761L23.008 132.091ZM44.7797 128.961L43.3154 127.869L43.3118 127.874L44.7797 128.961ZM45.8232 118.573L44.0909 119.15L44.0987 119.174L44.1071 119.197L45.8232 118.573ZM40.1313 112.786L40.8937 111.127L40.8931 111.126L40.1313 112.786ZM31.451 109.703L30.9171 111.449L30.9211 111.45L31.451 109.703ZM21.3952 105.908L20.608 107.556L20.6151 107.559L21.3952 105.908ZM14.5649 100.975L13.1864 102.173L13.192 102.179L13.1976 102.185L14.5649 100.975ZM11.1971 95.0459L9.43046 95.5079L9.4347 95.5242L9.43924 95.5403L11.1971 95.0459ZM22.4862 71.8511L21.9974 70.0917L21.9932 70.0928L22.4862 71.8511ZM51.3255 76.0727L50.2622 77.5573L50.2668 77.5606L51.3255 76.0727ZM52.4639 79.7724L53.9608 80.8183L53.9664 80.8103L53.9719 80.8023L52.4639 79.7724ZM50.0448 83.2351L48.5478 82.1892L48.5467 82.1909L50.0448 83.2351ZM45.7758 82.571L44.7227 84.0629L44.7271 84.0659L45.7758 82.571ZM39.8467 79.393L39.1136 81.0654L39.1273 81.0715L39.1411 81.0773L39.8467 79.393ZM25.7116 78.9187L26.3061 80.6453L26.3186 80.641L26.3312 80.6364L25.7116 78.9187ZM19.8774 91.6307L18.0947 92.0269L18.0972 92.0376L19.8774 91.6307ZM25.6168 97.7496L26.3361 96.0711L26.3318 96.0693L25.6168 97.7496ZM34.8662 100.785L34.3734 102.544L34.3812 102.546L34.3891 102.548L34.8662 100.785ZM45.8707 105.007L45.0088 106.617L45.0123 106.619L45.8707 105.007ZM52.1318 109.892L50.6645 110.979L50.6758 110.995L50.6875 111.01L52.1318 109.892ZM55.1201 115.395L53.3961 115.997L53.4019 116.013L53.408 116.03L55.1201 115.395ZM11.1897 133.394C10.4561 132.729 10.186 132.272 10.1072 132.035C10.0901 131.984 10.0846 131.951 10.0828 131.933C10.081 131.916 10.082 131.909 10.0823 131.907C10.0825 131.906 10.0833 131.9 10.0887 131.887C10.0943 131.873 10.1073 131.845 10.1356 131.805L7.13585 129.721C6.4083 130.769 6.24125 131.987 6.64248 133.19C7.00641 134.282 7.7957 135.247 8.73805 136.101L11.1897 133.394ZM10.1364 131.803L12.6029 128.246L9.60159 126.165L7.13507 129.723L10.1364 131.803ZM12.6037 128.245C12.6793 128.136 12.7094 128.136 12.6709 128.156C12.6251 128.179 12.6007 128.17 12.6486 128.173C12.8136 128.185 13.2871 128.316 14.1333 128.951L16.3246 126.029C15.2735 125.241 14.1105 124.613 12.8999 124.53C11.5044 124.434 10.3553 125.076 9.60087 126.166L12.6037 128.245ZM14.1362 128.953C16.736 130.895 19.4448 132.498 22.2627 133.758L23.7532 130.424C21.1953 129.28 18.7182 127.817 16.3216 126.027L14.1362 128.953ZM22.2699 133.761C25.2801 135.091 28.8344 135.72 32.874 135.72V132.067C29.1979 132.067 26.1748 131.494 23.746 130.421L22.2699 133.761ZM32.874 135.72C35.8922 135.72 38.5597 135.268 40.8129 134.287L39.3548 130.939C37.6868 131.665 35.5479 132.067 32.874 132.067V135.72ZM40.8129 134.287C43.0407 133.317 44.8707 131.907 46.2476 130.047L43.3118 127.874C42.3487 129.176 41.0481 130.201 39.3548 130.939L40.8129 134.287ZM46.244 130.052C47.7111 128.083 48.4083 125.742 48.4083 123.126H44.7561C44.7561 125.064 44.2517 126.613 43.3154 127.869L46.244 130.052ZM48.4083 123.126C48.4083 121.293 48.1257 119.561 47.5394 117.949L44.1071 119.197C44.5327 120.367 44.7561 121.671 44.7561 123.126H48.4083ZM47.5556 117.995C46.9843 116.281 46.0352 114.818 44.7072 113.646L42.2909 116.384C43.1132 117.11 43.7135 118.018 44.0909 119.15L47.5556 117.995ZM44.7072 113.646C43.5134 112.593 42.2429 111.746 40.8937 111.127L39.3689 114.445C40.3597 114.9 41.3344 115.541 42.2909 116.384L44.7072 113.646ZM40.8931 111.126C38.8494 110.188 35.8611 109.132 31.981 107.955L30.9211 111.45C34.7567 112.613 37.5553 113.613 39.3695 114.445L40.8931 111.126ZM31.985 107.956C28.2226 106.806 24.9562 105.571 22.1754 104.257L20.6151 107.559C23.5895 108.965 27.0269 110.259 30.9171 111.449L31.985 107.956ZM22.1825 104.26C19.509 102.983 17.4456 101.474 15.9322 99.7646L13.1976 102.185C15.0993 104.334 17.5895 106.114 20.608 107.556L22.1825 104.26ZM15.9433 99.7773C14.4068 98.0089 13.4372 96.2659 12.955 94.5515L9.43924 95.5403C10.0955 97.8735 11.371 100.083 13.1864 102.173L15.9433 99.7773ZM12.9638 94.5838C12.4736 92.7097 12.2169 90.5295 12.2169 88.0258H8.56468C8.56468 90.7714 8.84547 93.2712 9.43046 95.5079L12.9638 94.5838ZM12.2169 88.0258C12.2169 84.3924 13.265 81.342 15.3237 78.7825L12.4779 76.4934C9.85655 79.7524 8.56468 83.6272 8.56468 88.0258H12.2169ZM15.3237 78.7825C17.4411 76.1501 19.9855 74.4488 22.9792 73.6094L21.9932 70.0928C18.2198 71.1508 15.0406 73.3074 12.4779 76.4934L15.3237 78.7825ZM22.9749 73.6106C26.2325 72.7057 29.5308 72.2542 32.874 72.2542V68.6021C29.1972 68.6021 25.5702 69.0992 21.9974 70.0917L22.9749 73.6106ZM32.874 72.2542C36.7379 72.2542 40.0188 72.757 42.7519 73.7164L43.9616 70.2704C40.7497 69.1428 37.0421 68.6021 32.874 68.6021V72.2542ZM42.7519 73.7164C45.5763 74.708 48.0755 75.9911 50.2622 77.5573L52.3888 74.5881C49.8954 72.8023 47.0821 71.3659 43.9616 70.2704L42.7519 73.7164ZM50.2668 77.5606C50.9347 78.0358 51.0764 78.3421 51.098 78.4122C51.1037 78.4306 51.1039 78.4352 51.1001 78.4538C51.0943 78.4832 51.0682 78.5782 50.9559 78.7426L53.9719 80.8023C54.6528 79.8052 54.9774 78.6015 54.5887 77.3381C54.2308 76.1749 53.3606 75.2796 52.3842 74.5848L50.2668 77.5606ZM50.9669 78.7266L48.5478 82.1892L51.5417 84.2809L53.9608 80.8183L50.9669 78.7266ZM48.5467 82.1909C48.5448 82.1935 48.5585 82.1736 48.5926 82.146C48.628 82.1175 48.6712 82.0923 48.7167 82.0749C48.8108 82.0389 48.8321 82.0659 48.7127 82.0473C48.4178 82.0014 47.8097 81.7671 46.8245 81.0761L44.7271 84.0659C45.8607 84.8611 47.0233 85.4806 48.1514 85.6561C48.7435 85.7482 49.3894 85.7277 50.021 85.4862C50.6673 85.2391 51.1747 84.8075 51.5429 84.2792L48.5467 82.1909ZM46.8289 81.0791C45.0821 79.8461 42.982 78.7266 40.5523 77.7087L39.1411 81.0773C41.3914 82.02 43.2441 83.0191 44.7227 84.0629L46.8289 81.0791ZM40.5798 77.7205C38.0651 76.6182 35.5239 76.049 32.9689 76.049V79.7012C34.9675 79.7012 37.0114 80.144 39.1136 81.0654L40.5798 77.7205ZM32.9689 76.049C29.9297 76.049 27.284 76.4104 25.0921 77.2009L26.3312 80.6364C27.9972 80.0356 30.1896 79.7012 32.9689 79.7012V76.049ZM25.1172 77.192C22.8351 77.9777 20.9907 79.3505 19.6524 81.3006L22.6637 83.3671C23.5389 82.0918 24.7303 81.1878 26.3061 80.6453L25.1172 77.192ZM19.6524 81.3006C18.3194 83.2429 17.6718 85.4756 17.6718 87.9309H21.324C21.324 86.1489 21.7832 84.6502 22.6637 83.3671L19.6524 81.3006ZM17.6718 87.9309C17.6718 89.3743 17.8092 90.7419 18.0948 92.0268L21.66 91.2346C21.4396 90.2427 21.324 89.1438 21.324 87.9309H17.6718ZM18.0972 92.0376C18.44 93.5375 19.285 94.9447 20.4593 96.2614L23.1849 93.8304C22.2722 92.8071 21.8207 91.9374 21.6575 91.2238L18.0972 92.0376ZM20.4593 96.2614C21.6874 97.6383 23.1757 98.6954 24.9018 99.4299L26.3318 96.0693C25.0854 95.5389 24.0439 94.7935 23.1849 93.8304L20.4593 96.2614ZM24.8974 99.428C27.0043 100.331 30.1823 101.369 34.3734 102.544L35.3591 99.027C31.2019 97.8617 28.2136 96.8758 26.3361 96.0711L24.8974 99.428ZM34.3891 102.548C38.4901 103.658 42.0241 105.019 45.0088 106.617L46.7325 103.397C43.4561 101.643 39.6538 100.189 35.3433 99.0226L34.3891 102.548ZM45.0123 106.619C47.8009 108.104 49.6256 109.577 50.6645 110.979L53.5992 108.805C52.1083 106.793 49.7589 105.009 46.7291 103.395L45.0123 106.619ZM50.6875 111.01C51.8641 112.531 52.7656 114.191 53.3961 115.997L56.8441 114.793C56.0833 112.614 54.9926 110.606 53.5762 108.775L50.6875 111.01ZM53.408 116.03C54.0478 117.754 54.385 119.747 54.385 122.035H58.0372C58.0372 119.39 57.6471 116.956 56.8322 114.76L53.408 116.03ZM54.385 122.035C54.385 126.2 53.3205 129.535 51.3005 132.164L54.1964 134.39C56.7932 131.01 58.0372 126.851 58.0372 122.035H54.385ZM51.3005 132.164C49.175 134.93 46.7099 136.789 43.9089 137.825L45.1762 141.251C48.6996 139.947 51.7052 137.632 54.1964 134.39L51.3005 132.164ZM43.9089 137.825C41.0149 138.896 37.2783 139.467 32.6369 139.467V143.119C37.5452 143.119 41.7458 142.52 45.1762 141.251L43.9089 137.825ZM32.6369 139.467C27.0381 139.467 22.5177 138.815 19.0147 137.579L17.7992 141.023C21.8222 142.443 26.7884 143.119 32.6369 143.119V139.467ZM19.0147 137.579C15.3643 136.291 12.8072 134.874 11.1968 133.4L8.73097 136.094C10.852 138.036 13.9235 139.655 17.7992 141.023L19.0147 137.579ZM81.066 129.862L79.7212 131.097L79.7287 131.105L79.7362 131.113L81.066 129.862ZM105.684 129.862L104.347 128.618L104.346 128.619L105.684 129.862ZM111.66 135.127L110.446 133.763L110.441 133.767L111.66 135.127ZM75.0894 135.127L73.8704 136.486L73.8751 136.491L75.0894 135.127ZM70.0377 113.924V74.4599H66.3856V113.924H70.0377ZM70.0377 74.4599C70.0377 73.831 70.1844 73.7002 70.1558 73.7317C70.0971 73.7962 70.1215 73.6772 70.5833 73.6772V70.025C69.464 70.025 68.3026 70.3408 67.4534 71.275C66.6342 72.1761 66.3856 73.3496 66.3856 74.4599H70.0377ZM70.5833 73.6772H74.9471V70.025H70.5833V73.6772ZM74.9471 73.6772C75.409 73.6772 75.4333 73.7962 75.3747 73.7317C75.346 73.7002 75.4927 73.831 75.4927 74.4599H79.1449C79.1449 73.3496 78.8963 72.1761 78.0771 71.275C77.2279 70.3408 76.0664 70.025 74.9471 70.025V73.6772ZM75.4927 74.4599V112.501H79.1449V74.4599H75.4927ZM75.4927 112.501C75.4927 117.001 75.8089 120.802 76.4706 123.867C77.1264 126.905 78.1576 129.395 79.7212 131.097L82.4108 128.626C81.4762 127.609 80.6339 125.846 80.0406 123.097C79.4532 120.376 79.1449 116.856 79.1449 112.501H75.4927ZM79.7362 131.113C82.7601 134.326 87.4724 135.72 93.3986 135.72V132.067C87.9409 132.067 84.4314 130.773 82.3958 128.61L79.7362 131.113ZM93.3986 135.72C99.3223 135.72 104.026 134.327 107.021 131.105L104.346 128.619C102.345 130.772 98.8589 132.067 93.3986 132.067V135.72ZM107.021 131.105C108.604 129.404 109.649 126.913 110.314 123.872C110.984 120.804 111.304 117.002 111.304 112.501H107.652C107.652 116.855 107.34 120.373 106.746 123.092C106.146 125.838 105.294 127.6 104.347 128.618L107.021 131.105ZM111.304 112.501V74.4599H107.652V112.501H111.304ZM111.304 74.4599C111.304 73.831 111.451 73.7002 111.423 73.7317C111.364 73.7962 111.388 73.6772 111.85 73.6772V70.025C110.731 70.025 109.569 70.3408 108.72 71.275C107.901 72.1761 107.652 73.3496 107.652 74.4599H111.304ZM111.85 73.6772H116.214V70.025H111.85V73.6772ZM116.214 73.6772C116.676 73.6772 116.7 73.7962 116.641 73.7317C116.613 73.7002 116.759 73.831 116.759 74.4599H120.412C120.412 73.3496 120.163 72.1761 119.344 71.275C118.495 70.3408 117.333 70.025 116.214 70.025V73.6772ZM116.759 74.4599V113.924H120.412V74.4599H116.759ZM116.759 113.924C116.759 123.743 114.488 130.164 110.446 133.763L112.875 136.491C118.066 131.868 120.412 124.154 120.412 113.924H116.759ZM110.441 133.767C106.264 137.512 100.647 139.467 93.3986 139.467V143.119C101.329 143.119 107.886 140.963 112.879 136.486L110.441 133.767ZM93.3986 139.467C86.1506 139.467 80.5144 137.512 76.3038 133.763L73.8751 136.491C78.8981 140.963 85.468 143.119 93.3986 143.119V139.467ZM76.3084 133.767C72.2951 130.169 70.0377 123.746 70.0377 113.924H66.3856C66.3856 124.151 68.7134 131.863 73.8704 136.486L76.3084 133.767Z" fill="#4C8046"/>
<path d="M359.756 79.0965C358.017 79.0965 357.147 78.385 357.147 76.962V73.0725C357.147 71.6495 358.017 70.938 359.756 70.938H409.94C411.679 70.938 412.549 71.6495 412.549 73.0725V76.962C412.549 78.385 411.679 79.0965 409.94 79.0965H389.402V136.348C389.402 138.087 388.611 138.957 387.03 138.957H382.666C381.085 138.957 380.294 138.087 380.294 136.348V79.0965H359.756Z" fill="#4C8046"/>
<path d="M389.402 79.0965V77.2704H387.575V79.0965H389.402ZM380.294 79.0965H382.12V77.2704H380.294V79.0965ZM359.756 77.2704C359.089 77.2704 358.927 77.1266 358.956 77.1496C358.964 77.1562 358.975 77.1677 358.987 77.1829C358.997 77.1978 359.002 77.2078 359.001 77.2069C359 77.2037 358.973 77.1353 358.973 76.962H355.321C355.321 78.0626 355.675 79.1843 356.643 79.9762C357.541 80.7107 358.684 80.9226 359.756 80.9226V77.2704ZM358.973 76.962V73.0725H355.321V76.962H358.973ZM358.973 73.0725C358.973 72.8993 359 72.8309 359.001 72.8277C359.002 72.8268 358.997 72.8367 358.987 72.8517C358.975 72.8669 358.964 72.8784 358.956 72.885C358.927 72.908 359.089 72.7641 359.756 72.7641V69.112C358.684 69.112 357.541 69.3238 356.643 70.0584C355.675 70.8503 355.321 71.972 355.321 73.0725H358.973ZM359.756 72.7641H409.94V69.112H359.756V72.7641ZM409.94 72.7641C410.607 72.7641 410.768 72.908 410.74 72.885C410.732 72.8784 410.721 72.8669 410.709 72.8517C410.698 72.8367 410.694 72.8268 410.695 72.8277C410.696 72.8309 410.723 72.8993 410.723 73.0725H414.375C414.375 71.972 414.021 70.8503 413.053 70.0584C412.155 69.3238 411.012 69.112 409.94 69.112V72.7641ZM410.723 73.0725V76.962H414.375V73.0725H410.723ZM410.723 76.962C410.723 77.1353 410.696 77.2037 410.695 77.2069C410.694 77.2078 410.698 77.1978 410.709 77.1829C410.721 77.1677 410.732 77.1562 410.74 77.1496C410.768 77.1266 410.607 77.2704 409.94 77.2704V80.9226C411.012 80.9226 412.155 80.7107 413.053 79.9762C414.021 79.1843 414.375 78.0626 414.375 76.962H410.723ZM409.94 77.2704H389.402V80.9226H409.94V77.2704ZM387.575 79.0965V136.348H391.228V79.0965H387.575ZM387.575 136.348C387.575 136.977 387.429 137.108 387.457 137.076C387.516 137.012 387.492 137.131 387.03 137.131V140.783C388.149 140.783 389.311 140.467 390.16 139.533C390.979 138.632 391.228 137.459 391.228 136.348H387.575ZM387.03 137.131H382.666V140.783H387.03V137.131ZM382.666 137.131C382.204 137.131 382.18 137.012 382.239 137.076C382.267 137.108 382.12 136.977 382.12 136.348H378.468C378.468 137.459 378.717 138.632 379.536 139.533C380.385 140.467 381.547 140.783 382.666 140.783V137.131ZM382.12 136.348V79.0965H378.468V136.348H382.12ZM380.294 77.2704H359.756V80.9226H380.294V77.2704Z" fill="#4C8046"/>
<rect x="300.391" y="75.7829" width="39.2609" height="58.4348" rx="19.6304" stroke="#4C8046" stroke-width="10.9565"/>
<defs>
<filter id="filter0_i_21_1135" x="221.795" y="39.5498" width="30.8915" height="55.2634" filterUnits="userSpaceOnUse" color-interpolation-filters="sRGB">
<feFlood flood-opacity="0" result="BackgroundImageFix"/>
<feBlend mode="normal" in="SourceGraphic" in2="BackgroundImageFix" result="shape"/>
<feColorMatrix in="SourceAlpha" type="matrix" values="0 0 0 0 0 0 0 0 0 0 0 0 0 0 0 0 0 0 127 0" result="hardAlpha"/>
<feOffset dx="0.496468" dy="0.992937"/>
<feGaussianBlur stdDeviation="2.48234"/>
<feComposite in2="hardAlpha" operator="arithmetic" k2="-1" k3="1"/>
<feColorMatrix type="matrix" values="0 0 0 0 0 0 0 0 0 0 0 0 0 0 0 0 0 0 0.25 0"/>
<feBlend mode="normal" in2="shape" result="effect1_innerShadow_21_1135"/>
</filter>
<filter id="filter1_i_21_1135" x="206.721" y="119.229" width="30.892" height="53.1013" filterUnits="userSpaceOnUse" color-interpolation-filters="sRGB">
<feFlood flood-opacity="0" result="BackgroundImageFix"/>
<feBlend mode="normal" in="SourceGraphic" in2="BackgroundImageFix" result="shape"/>
<feColorMatrix in="SourceAlpha" type="matrix" values="0 0 0 0 0 0 0 0 0 0 0 0 0 0 0 0 0 0 127 0" result="hardAlpha"/>
<feOffset dx="0.496468" dy="0.992937"/>
<feGaussianBlur stdDeviation="2.48234"/>
<feComposite in2="hardAlpha" operator="arithmetic" k2="-1" k3="1"/>
<feColorMatrix type="matrix" values="0 0 0 0 0 0 0 0 0 0 0 0 0 0 0 0 0 0 0.25 0"/>
<feBlend mode="normal" in2="shape" result="effect1_innerShadow_21_1135"/>
</filter>
<filter id="filter2_i_21_1135" x="161.501" y="39.5498" width="30.8915" height="55.2634" filterUnits="userSpaceOnUse" color-interpolation-filters="sRGB">
<feFlood flood-opacity="0" result="BackgroundImageFix"/>
<feBlend mode="normal" in="SourceGraphic" in2="BackgroundImageFix" result="shape"/>
<feColorMatrix in="SourceAlpha" type="matrix" values="0 0 0 0 0 0 0 0 0 0 0 0 0 0 0 0 0 0 127 0" result="hardAlpha"/>
<feOffset dx="0.496468" dy="0.992937"/>
<feGaussianBlur stdDeviation="2.48234"/>
<feComposite in2="hardAlpha" operator="arithmetic" k2="-1" k3="1"/>
<feColorMatrix type="matrix" values="0 0 0 0 0 0 0 0 0 0 0 0 0 0 0 0 0 0 0.25 0"/>
<feBlend mode="normal" in2="shape" result="effect1_innerShadow_21_1135"/>
</filter>
<filter id="filter3_i_21_1135" x="176.574" y="119.229" width="30.892" height="53.1013" filterUnits="userSpaceOnUse" color-interpolation-filters="sRGB">
<feFlood flood-opacity="0" result="BackgroundImageFix"/>
<feBlend mode="normal" in="SourceGraphic" in2="BackgroundImageFix" result="shape"/>
<feColorMatrix in="SourceAlpha" type="matrix" values="0 0 0 0 0 0 0 0 0 0 0 0 0 0 0 0 0 0 127 0" result="hardAlpha"/>
<feOffset dx="0.496468" dy="0.992937"/>
<feGaussianBlur stdDeviation="2.48234"/>
<feComposite in2="hardAlpha" operator="arithmetic" k2="-1" k3="1"/>
<feColorMatrix type="matrix" values="0 0 0 0 0 0 0 0 0 0 0 0 0 0 0 0 0 0 0.25 0"/>
<feBlend mode="normal" in2="shape" result="effect1_innerShadow_21_1135"/>
</filter>
<filter id="filter4_i_21_1135" x="206.721" y="75.4414" width="76.1122" height="96.8865" filterUnits="userSpaceOnUse" color-interpolation-filters="sRGB">
<feFlood flood-opacity="0" result="BackgroundImageFix"/>
<feBlend mode="normal" in="SourceGraphic" in2="BackgroundImageFix" result="shape"/>
<feColorMatrix in="SourceAlpha" type="matrix" values="0 0 0 0 0 0 0 0 0 0 0 0 0 0 0 0 0 0 127 0" result="hardAlpha"/>
<feOffset dx="0.496468" dy="0.992937"/>
<feGaussianBlur stdDeviation="2.48234"/>
<feComposite in2="hardAlpha" operator="arithmetic" k2="-1" k3="1"/>
<feColorMatrix type="matrix" values="0 0 0 0 0 0 0 0 0 0 0 0 0 0 0 0 0 0 0.25 0"/>
<feBlend mode="normal" in2="shape" result="effect1_innerShadow_21_1135"/>
</filter>
<filter id="filter5_i_21_1135" x="131.354" y="75.4414" width="76.1122" height="96.8865" filterUnits="userSpaceOnUse" color-interpolation-filters="sRGB">
<feFlood flood-opacity="0" result="BackgroundImageFix"/>
<feBlend mode="normal" in="SourceGraphic" in2="BackgroundImageFix" result="shape"/>
<feColorMatrix in="SourceAlpha" type="matrix" values="0 0 0 0 0 0 0 0 0 0 0 0 0 0 0 0 0 0 127 0" result="hardAlpha"/>
<feOffset dx="0.496468" dy="0.992937"/>
<feGaussianBlur stdDeviation="2.48234"/>
<feComposite in2="hardAlpha" operator="arithmetic" k2="-1" k3="1"/>
<feColorMatrix type="matrix" values="0 0 0 0 0 0 0 0 0 0 0 0 0 0 0 0 0 0 0.25 0"/>
<feBlend mode="normal" in2="shape" result="effect1_innerShadow_21_1135"/>
</filter>
</defs>
</svg>
