<svg width="158" height="248" viewBox="0 0 158 248" fill="none" xmlns="http://www.w3.org/2000/svg">
<path d="M5.64307 243.889C4.62516 242.967 4.35628 242.16 4.83643 241.469L6.33447 239.308C6.85303 238.559 7.68848 238.617 8.84082 239.481C10.3581 240.614 11.9329 241.546 13.5654 242.275C15.2171 243.005 17.2145 243.37 19.5576 243.37C21.2861 243.37 22.7458 243.111 23.9365 242.592C25.1273 242.074 26.078 241.334 26.7886 240.374C27.5184 239.395 27.8833 238.213 27.8833 236.831C27.8833 235.832 27.7297 234.91 27.4224 234.065C27.1343 233.201 26.6637 232.48 26.0107 231.904C25.3577 231.328 24.6759 230.877 23.9653 230.55C22.7938 230.013 21.0365 229.388 18.6934 228.678C16.3695 227.967 14.3337 227.199 12.5859 226.373C10.8574 225.547 9.47461 224.549 8.4375 223.377C7.4196 222.205 6.73779 221.005 6.39209 219.776C6.06559 218.528 5.90234 217.106 5.90234 215.512C5.90234 213.073 6.61296 210.97 8.03418 209.203C9.4554 207.436 11.1935 206.265 13.2485 205.688C15.3228 205.112 17.4258 204.824 19.5576 204.824C21.9967 204.824 24.119 205.141 25.9243 205.775C27.7297 206.409 29.3429 207.235 30.7642 208.252C31.7629 208.963 31.9933 209.712 31.4556 210.5L29.9863 212.603C29.5446 213.236 28.6803 213.102 27.3936 212.199C26.4141 211.508 25.2137 210.864 23.7925 210.269C22.3905 209.654 20.998 209.347 19.6152 209.347C17.8483 209.347 16.3791 209.558 15.2075 209.981C14.036 210.384 13.1141 211.076 12.4419 212.055C11.7697 213.035 11.4336 214.168 11.4336 215.455C11.4336 216.261 11.5104 217.01 11.6641 217.702C11.8177 218.374 12.2114 219.065 12.8452 219.776C13.479 220.486 14.2472 221.034 15.1499 221.418C16.3599 221.937 18.2324 222.551 20.7676 223.262C23.3219 223.953 25.5498 224.808 27.4512 225.826C29.2181 226.767 30.4857 227.756 31.2539 228.793C32.0413 229.811 32.6463 230.925 33.0688 232.135C33.5106 233.326 33.7314 234.67 33.7314 236.168C33.7314 238.895 33.0304 241.171 31.6284 242.996C30.2264 244.82 28.5651 246.088 26.6445 246.798C24.724 247.509 22.3136 247.864 19.4136 247.864C15.9373 247.864 13.0565 247.461 10.771 246.654C8.48551 245.848 6.7762 244.926 5.64307 243.889ZM41.02 231.242V207.273C41.02 206.217 41.5002 205.688 42.4604 205.688H45.1108C46.0711 205.688 46.5513 206.217 46.5513 207.273V230.377C46.5513 235.755 47.3099 239.27 48.8271 240.921C50.3636 242.554 52.8604 243.37 56.3174 243.37C59.7744 243.37 62.2616 242.554 63.7788 240.921C65.3153 239.27 66.0835 235.755 66.0835 230.377V207.273C66.0835 206.217 66.5636 205.688 67.5239 205.688H70.1743C71.1346 205.688 71.6147 206.217 71.6147 207.273V231.242C71.6147 237.33 70.2127 241.622 67.4087 244.119C64.6239 246.616 60.9268 247.864 56.3174 247.864C51.708 247.864 48.0013 246.616 45.1973 244.119C42.4124 241.622 41.02 237.33 41.02 231.242ZM79.1626 226.344C79.1626 219.622 80.8143 214.36 84.1177 210.557C87.4403 206.735 92.2225 204.824 98.4644 204.824C104.706 204.824 109.479 206.735 112.782 210.557C116.105 214.36 117.766 219.622 117.766 226.344C117.766 233.066 116.105 238.338 112.782 242.16C109.479 245.963 104.706 247.864 98.4644 247.864C92.2225 247.864 87.4403 245.963 84.1177 242.16C80.8143 238.338 79.1626 233.066 79.1626 226.344ZM85.0684 226.344C85.0684 231.722 86.1727 235.909 88.3813 238.905C90.59 241.882 93.951 243.37 98.4644 243.37C102.978 243.37 106.339 241.882 108.547 238.905C110.756 235.909 111.86 231.722 111.86 226.344C111.86 220.967 110.756 216.789 108.547 213.812C106.339 210.816 102.978 209.318 98.4644 209.318C93.951 209.318 90.59 210.816 88.3813 213.812C86.1727 216.789 85.0684 220.967 85.0684 226.344ZM123.038 210.644C121.982 210.644 121.454 210.211 121.454 209.347V206.985C121.454 206.121 121.982 205.688 123.038 205.688H153.518C154.574 205.688 155.102 206.121 155.102 206.985V209.347C155.102 210.211 154.574 210.644 153.518 210.644H141.043V245.416C141.043 246.472 140.563 247 139.603 247H136.953C135.992 247 135.512 246.472 135.512 245.416V210.644H123.038Z" fill="white"/>
<path d="M5.64307 243.889L6.52479 242.925L6.51971 242.921L5.64307 243.889ZM4.83643 241.469L5.90908 242.214L5.90964 242.213L4.83643 241.469ZM6.33447 239.308L7.40769 240.052L7.4082 240.051L6.33447 239.308ZM8.84082 239.481L8.05726 240.526L8.05938 240.527L8.84082 239.481ZM13.5654 242.275L13.0324 243.468L13.0376 243.47L13.5654 242.275ZM26.7886 240.374L25.7414 239.594L25.7388 239.597L26.7886 240.374ZM27.4224 234.065L26.1834 234.478L26.189 234.495L26.1951 234.511L27.4224 234.065ZM23.9653 230.55L24.5106 229.364L24.5101 229.363L23.9653 230.55ZM18.6934 228.678L18.3115 229.927L18.3143 229.927L18.6934 228.678ZM12.5859 226.373L12.0229 227.551L12.028 227.554L12.5859 226.373ZM8.4375 223.377L7.45164 224.234L7.45966 224.243L8.4375 223.377ZM6.39209 219.776L5.12865 220.106L5.13168 220.118L5.13493 220.129L6.39209 219.776ZM13.2485 205.688L12.899 204.43L12.896 204.431L13.2485 205.688ZM30.7642 208.252L30.0037 209.314L30.007 209.317L30.7642 208.252ZM31.4556 210.5L32.5262 211.247L32.534 211.236L31.4556 210.5ZM29.9863 212.603L28.9158 211.855L28.9149 211.856L29.9863 212.603ZM27.3936 212.199L26.6404 213.266L26.6436 213.268L27.3936 212.199ZM23.7925 210.269L23.2682 211.465L23.278 211.469L23.2879 211.474L23.7925 210.269ZM15.2075 209.981L15.6326 211.216L15.6416 211.213L15.6506 211.209L15.2075 209.981ZM11.6641 217.702L10.3892 217.985L10.391 217.993L11.6641 217.702ZM15.1499 221.418L15.6643 220.218L15.6612 220.216L15.1499 221.418ZM20.7676 223.262L20.4151 224.519L20.4264 224.522L20.7676 223.262ZM27.4512 225.826L26.8348 226.977L26.8373 226.978L27.4512 225.826ZM31.2539 228.793L30.2045 229.57L30.2126 229.581L30.221 229.592L31.2539 228.793ZM33.0688 232.135L31.8359 232.565L31.8401 232.577L31.8444 232.589L33.0688 232.135ZM31.6284 242.996L30.5929 242.2L31.6284 242.996ZM6.51971 242.921C6.0854 242.527 5.94937 242.277 5.9169 242.179C5.90555 242.145 5.91502 242.155 5.9099 242.191C5.90471 242.228 5.8922 242.238 5.90908 242.214L3.76377 240.724C3.28607 241.412 3.17598 242.216 3.43906 243.005C3.67546 243.714 4.18283 244.328 4.76642 244.857L6.51971 242.921ZM5.90964 242.213L7.40769 240.052L5.26126 238.564L3.76321 240.725L5.90964 242.213ZM7.4082 240.051C7.43929 240.007 7.4343 240.031 7.37672 240.061C7.34968 240.074 7.32141 240.084 7.29589 240.089C7.27116 240.093 7.25777 240.092 7.26012 240.092C7.2692 240.093 7.3405 240.101 7.48654 240.169C7.63116 240.236 7.82075 240.348 8.05726 240.526L9.62438 238.436C8.97495 237.949 8.23143 237.541 7.43983 237.487C6.51593 237.423 5.75427 237.852 5.26074 238.565L7.4082 240.051ZM8.05938 240.527C9.64929 241.715 11.307 242.696 13.0324 243.468L14.0984 241.083C12.5589 240.395 11.0669 239.513 9.62226 238.435L8.05938 240.527ZM13.0376 243.47C14.8972 244.292 17.0845 244.676 19.5576 244.676V242.064C17.3445 242.064 15.5371 241.719 14.0932 241.081L13.0376 243.47ZM19.5576 244.676C21.4093 244.676 23.0579 244.399 24.4579 243.79L23.4151 241.395C22.4336 241.822 21.163 242.064 19.5576 242.064V244.676ZM24.4579 243.79C25.8398 243.188 26.9798 242.311 27.8383 241.151L25.7388 239.597C25.1761 240.358 24.4148 240.96 23.4151 241.395L24.4579 243.79ZM27.8358 241.154C28.7554 239.92 29.1892 238.456 29.1892 236.831H26.5774C26.5774 237.971 26.2814 238.869 25.7414 239.594L27.8358 241.154ZM29.1892 236.831C29.1892 235.696 29.0144 234.622 28.6497 233.619L26.1951 234.511C26.4449 235.198 26.5774 235.967 26.5774 236.831H29.1892ZM28.6613 233.652C28.3039 232.58 27.7086 231.661 26.8748 230.925L25.1467 232.884C25.6189 233.3 25.9647 233.822 26.1834 234.478L28.6613 233.652ZM26.8748 230.925C26.1369 230.274 25.3493 229.749 24.5106 229.364L23.4201 231.737C24.0026 232.005 24.5786 232.382 25.1467 232.884L26.8748 230.925ZM24.5101 229.363C23.2565 228.788 21.4314 228.143 19.0724 227.428L18.3143 229.927C20.6415 230.633 22.331 231.237 23.4205 231.737L24.5101 229.363ZM19.0752 227.429C16.797 226.732 14.8223 225.985 13.1439 225.192L12.028 227.554C13.845 228.412 15.9419 229.202 18.3115 229.927L19.0752 227.429ZM13.1489 225.195C11.5438 224.428 10.3136 223.526 9.41534 222.511L7.45966 224.243C8.6356 225.571 10.1711 226.667 12.0229 227.551L13.1489 225.195ZM9.42331 222.52C8.50512 221.464 7.93272 220.43 7.64925 219.422L5.13493 220.129C5.54286 221.58 6.33407 222.947 7.45169 224.233L9.42331 222.52ZM7.65553 219.445C7.36295 218.327 7.20828 217.02 7.20828 215.512H4.59641C4.59641 217.193 4.76824 218.728 5.12865 220.106L7.65553 219.445ZM7.20828 215.512C7.20828 213.347 7.83175 211.538 9.05178 210.022L7.01658 208.385C5.39417 210.402 4.59641 212.799 4.59641 215.512H7.20828ZM9.05178 210.022C10.3138 208.453 11.8249 207.444 13.6011 206.946L12.896 204.431C10.5621 205.085 8.59705 206.42 7.01658 208.385L9.05178 210.022ZM13.5981 206.947C15.5596 206.402 17.5451 206.13 19.5576 206.13V203.518C17.3065 203.518 15.0859 203.823 12.899 204.43L13.5981 206.947ZM19.5576 206.13C21.888 206.13 23.8576 206.433 25.4917 207.007L26.3569 204.543C24.3803 203.849 22.1055 203.518 19.5576 203.518V206.13ZM25.4917 207.007C27.1912 207.604 28.6922 208.375 30.0037 209.314L31.5246 207.191C29.9937 206.094 28.2681 205.214 26.3569 204.543L25.4917 207.007ZM30.007 209.317C30.1911 209.447 30.3042 209.555 30.3702 209.634C30.4349 209.711 30.4417 209.744 30.4378 209.731C30.4317 209.711 30.4301 209.681 30.4343 209.66C30.4369 209.647 30.4336 209.68 30.3771 209.763L32.534 211.236C32.9733 210.593 33.1918 209.8 32.9342 208.963C32.6987 208.198 32.131 207.622 31.5213 207.188L30.007 209.317ZM30.385 209.752L28.9158 211.855L31.0569 213.35L32.5261 211.247L30.385 209.752ZM28.9149 211.856C28.9378 211.823 29.0027 211.755 29.1094 211.714C29.2057 211.677 29.2546 211.694 29.2076 211.687C29.1554 211.679 29.0388 211.648 28.8466 211.556C28.6578 211.465 28.4243 211.327 28.1435 211.13L26.6436 213.268C27.34 213.757 28.0761 214.154 28.8061 214.267C29.1912 214.327 29.6194 214.315 30.0422 214.154C30.4754 213.988 30.814 213.699 31.0577 213.349L28.9149 211.856ZM28.1467 211.132C27.0713 210.373 25.7825 209.687 24.2971 209.065L23.2879 211.474C24.645 212.042 25.7569 212.642 26.6404 213.266L28.1467 211.132ZM24.3168 209.073C22.7673 208.394 21.197 208.041 19.6152 208.041V210.653C20.7991 210.653 22.0137 210.915 23.2682 211.465L24.3168 209.073ZM19.6152 208.041C17.7554 208.041 16.1241 208.262 14.7645 208.752L15.6506 211.209C16.6341 210.855 17.9413 210.653 19.6152 210.653V208.041ZM14.7824 208.746C13.3583 209.236 12.2029 210.095 11.3651 211.316L13.5187 212.794C14.0253 212.056 14.7137 211.532 15.6326 211.216L14.7824 208.746ZM11.3651 211.316C10.5311 212.531 10.1277 213.927 10.1277 215.455H12.7395C12.7395 214.409 13.0083 213.538 13.5187 212.794L11.3651 211.316ZM10.1277 215.455C10.1277 216.344 10.2123 217.189 10.3892 217.985L12.9389 217.418C12.8085 216.832 12.7395 216.179 12.7395 215.455H10.1277ZM10.391 217.993C10.6089 218.946 11.1433 219.83 11.8706 220.645L13.8198 218.907C13.2796 218.301 13.0265 217.802 12.9372 217.411L10.391 217.993ZM11.8706 220.645C12.6364 221.504 13.5644 222.163 14.6386 222.62L15.6612 220.216C14.9301 219.905 14.3216 219.469 13.8198 218.907L11.8706 220.645ZM14.6355 222.618C15.9275 223.172 17.8678 223.805 20.4151 224.519L21.1201 222.004C18.597 221.297 16.7923 220.701 15.6643 220.218L14.6355 222.618ZM20.4264 224.522C22.9058 225.193 25.0378 226.015 26.8348 226.977L28.0675 224.674C26.0618 223.601 23.738 222.713 21.1088 222.001L20.4264 224.522ZM26.8373 226.978C28.5179 227.873 29.5979 228.751 30.2045 229.57L32.3033 228.016C31.3734 226.76 29.9183 225.66 28.0651 224.673L26.8373 226.978ZM30.221 229.592C30.9227 230.499 31.46 231.489 31.8359 232.565L34.3018 231.704C33.8327 230.361 33.16 229.123 32.2868 227.994L30.221 229.592ZM31.8444 232.589C32.2235 233.611 32.4255 234.798 32.4255 236.168H35.0374C35.0374 234.542 34.7976 233.04 34.2933 231.681L31.8444 232.589ZM32.4255 236.168C32.4255 238.663 31.7887 240.644 30.5929 242.2L32.6639 243.791C34.2722 241.698 35.0374 239.128 35.0374 236.168H32.4255ZM30.5929 242.2C29.3217 243.854 27.8536 244.959 26.1914 245.574L27.0977 248.023C29.2766 247.217 31.1311 245.786 32.6639 243.791L30.5929 242.2ZM26.1914 245.574C24.4626 246.213 22.2182 246.558 19.4136 246.558V249.17C22.4091 249.17 24.9853 248.805 27.0977 248.023L26.1914 245.574ZM19.4136 246.558C16.0266 246.558 13.3052 246.164 11.2056 245.423L10.3364 247.886C12.8078 248.758 15.8481 249.17 19.4136 249.17V246.558ZM11.2056 245.423C9.0007 244.645 7.47534 243.795 6.52478 242.925L4.76135 244.852C6.07707 246.056 7.97033 247.051 10.3364 247.886L11.2056 245.423ZM48.8271 240.921L47.8654 241.805L47.8707 241.811L47.8762 241.816L48.8271 240.921ZM63.7788 240.921L62.8226 240.032L62.8222 240.032L63.7788 240.921ZM67.4087 244.119L66.5402 243.144L66.5369 243.147L67.4087 244.119ZM45.1973 244.119L44.3255 245.092L44.3288 245.094L45.1973 244.119ZM42.326 231.242V207.273H39.7141V231.242H42.326ZM42.326 207.273C42.326 207.104 42.3457 207.005 42.3599 206.958C42.3726 206.916 42.3761 206.93 42.3464 206.963C42.3327 206.978 42.3172 206.991 42.3021 207.001C42.2873 207.011 42.2784 207.014 42.2798 207.014C42.2848 207.012 42.3367 206.994 42.4604 206.994V204.383C41.7452 204.383 40.9785 204.585 40.4138 205.206C39.8706 205.804 39.7141 206.573 39.7141 207.273H42.326ZM42.4604 206.994H45.1108V204.383H42.4604V206.994ZM45.1108 206.994C45.2346 206.994 45.2865 207.012 45.2915 207.014C45.2929 207.014 45.284 207.011 45.2692 207.001C45.2541 206.991 45.2386 206.978 45.2248 206.963C45.1952 206.93 45.1987 206.916 45.2114 206.958C45.2256 207.005 45.2453 207.104 45.2453 207.273H47.8572C47.8572 206.573 47.7007 205.804 47.1575 205.206C46.5928 204.585 45.8261 204.383 45.1108 204.383V206.994ZM45.2453 207.273V230.377H47.8572V207.273H45.2453ZM45.2453 230.377C45.2453 233.118 45.4378 235.442 45.8437 237.322C46.2453 239.183 46.8819 240.734 47.8654 241.805L49.7889 240.038C49.2552 239.457 48.7538 238.425 48.3968 236.771C48.0441 235.137 47.8572 233.014 47.8572 230.377H45.2453ZM47.8762 241.816C49.766 243.824 52.6928 244.676 56.3174 244.676V242.064C53.0279 242.064 50.9612 241.283 49.7781 240.026L47.8762 241.816ZM56.3174 244.676C59.9401 244.676 62.8629 243.825 64.7354 241.81L62.8222 240.032C61.6602 241.283 59.6087 242.064 56.3174 242.064V244.676ZM64.735 241.811C65.7307 240.741 66.376 239.188 66.7831 237.325C67.1945 235.444 67.3894 233.119 67.3894 230.377H64.7776C64.7776 233.014 64.5884 235.135 64.2315 236.768C63.8704 238.42 63.3634 239.451 62.8226 240.032L64.735 241.811ZM67.3894 230.377V207.273H64.7776V230.377H67.3894ZM67.3894 207.273C67.3894 207.104 67.4091 207.005 67.4233 206.958C67.4361 206.916 67.4396 206.93 67.4099 206.963C67.3962 206.978 67.3806 206.991 67.3655 207.001C67.3508 207.011 67.3419 207.014 67.3433 207.014C67.3482 207.012 67.4002 206.994 67.5239 206.994V204.383C66.8087 204.383 66.042 204.585 65.4773 205.206C64.9341 205.804 64.7776 206.573 64.7776 207.273H67.3894ZM67.5239 206.994H70.1743V204.383H67.5239V206.994ZM70.1743 206.994C70.2981 206.994 70.35 207.012 70.3549 207.014C70.3564 207.014 70.3475 207.011 70.3327 207.001C70.3176 206.991 70.302 206.978 70.2883 206.963C70.2587 206.93 70.2622 206.916 70.2749 206.958C70.2891 207.005 70.3088 207.104 70.3088 207.273H72.9207C72.9207 206.573 72.7642 205.804 72.221 205.206C71.6562 204.585 70.8895 204.383 70.1743 204.383V206.994ZM70.3088 207.273V231.242H72.9207V207.273H70.3088ZM70.3088 231.242C70.3088 237.183 68.9331 241.013 66.5402 243.144L68.2771 245.094C71.4924 242.232 72.9207 237.477 72.9207 231.242H70.3088ZM66.5369 243.147C64.044 245.382 60.6831 246.558 56.3174 246.558V249.17C61.1705 249.17 65.2037 247.85 68.2805 245.092L66.5369 243.147ZM56.3174 246.558C51.9521 246.558 48.5793 245.382 46.0657 243.144L44.3288 245.094C47.4234 247.85 51.4639 249.17 56.3174 249.17V246.558ZM46.069 243.147C43.6932 241.017 42.326 237.185 42.326 231.242H39.7141C39.7141 237.475 41.1317 242.228 44.3255 245.092L46.069 243.147ZM84.1177 210.557L83.1321 209.7L83.1318 209.701L84.1177 210.557ZM112.782 210.557L111.794 211.411L111.799 211.416L112.782 210.557ZM112.782 242.16L111.797 241.303L111.796 241.304L112.782 242.16ZM84.1177 242.16L83.1296 243.014L83.1342 243.019L84.1177 242.16ZM88.3813 238.905L87.3302 239.68L87.3326 239.683L88.3813 238.905ZM108.547 238.905L109.596 239.683L109.599 239.68L108.547 238.905ZM108.547 213.812L107.496 214.587L107.499 214.591L108.547 213.812ZM88.3813 213.812L89.4301 214.591L89.4325 214.587L88.3813 213.812ZM80.4685 226.344C80.4685 219.83 82.0671 214.909 85.1036 211.414L83.1318 209.701C79.5615 213.811 77.8567 219.414 77.8567 226.344H80.4685ZM85.1032 211.414C88.1214 207.942 92.5051 206.13 98.4644 206.13V203.518C91.9399 203.518 86.7591 205.528 83.1321 209.7L85.1032 211.414ZM98.4644 206.13C104.424 206.13 108.796 207.942 111.794 211.411L113.77 209.703C110.162 205.528 104.989 203.518 98.4644 203.518V206.13ZM111.799 211.416C114.853 214.912 116.46 219.832 116.46 226.344H119.072C119.072 219.412 117.357 213.808 113.766 209.698L111.799 211.416ZM116.46 226.344C116.46 232.856 114.853 237.788 111.797 241.303L113.768 243.017C117.357 238.889 119.072 233.277 119.072 226.344H116.46ZM111.796 241.304C108.799 244.754 104.426 246.558 98.4644 246.558V249.17C104.986 249.17 110.159 247.171 113.768 243.017L111.796 241.304ZM98.4644 246.558C92.503 246.558 88.1186 244.754 85.1011 241.301L83.1342 243.019C86.7619 247.171 91.942 249.17 98.4644 249.17V246.558ZM85.1057 241.306C82.0669 237.79 80.4685 232.858 80.4685 226.344H77.8567C77.8567 233.275 79.5617 238.886 83.1296 243.014L85.1057 241.306ZM83.7624 226.344C83.7624 231.881 84.897 236.379 87.3302 239.68L89.4325 238.13C87.4484 235.438 86.3743 231.562 86.3743 226.344H83.7624ZM87.3326 239.683C89.842 243.065 93.6384 244.676 98.4644 244.676V242.064C94.2636 242.064 91.338 240.698 89.4301 238.127L87.3326 239.683ZM98.4644 244.676C103.29 244.676 107.087 243.065 109.596 239.683L107.499 238.127C105.591 240.698 102.665 242.064 98.4644 242.064V244.676ZM109.599 239.68C112.032 236.379 113.166 231.881 113.166 226.344H110.554C110.554 231.562 109.48 235.438 107.496 238.13L109.599 239.68ZM113.166 226.344C113.166 220.808 112.032 216.317 109.596 213.034L107.499 214.591C109.48 217.261 110.554 221.125 110.554 226.344H113.166ZM109.599 213.038C107.09 209.635 103.293 208.012 98.4644 208.012V210.624C102.662 210.624 105.587 211.998 107.496 214.587L109.599 213.038ZM98.4644 208.012C93.6353 208.012 89.8384 209.635 87.3302 213.038L89.4325 214.587C91.3416 211.998 94.2668 210.624 98.4644 210.624V208.012ZM87.3326 213.034C84.8967 216.317 83.7624 220.808 83.7624 226.344H86.3743C86.3743 221.125 87.4487 217.261 89.4301 214.591L87.3326 213.034ZM141.043 210.644V209.338H139.738V210.644H141.043ZM135.512 210.644H136.818V209.338H135.512V210.644ZM123.038 209.338C122.859 209.338 122.748 209.319 122.688 209.303C122.632 209.287 122.641 209.28 122.677 209.309C122.718 209.342 122.748 209.387 122.762 209.422C122.773 209.448 122.76 209.433 122.76 209.347H120.148C120.148 210.058 120.377 210.802 121.023 211.33C121.618 211.817 122.365 211.949 123.038 211.949V209.338ZM122.76 209.347V206.985H120.148V209.347H122.76ZM122.76 206.985C122.76 206.899 122.773 206.884 122.762 206.91C122.748 206.945 122.718 206.99 122.677 207.023C122.641 207.052 122.632 207.045 122.688 207.029C122.748 207.013 122.859 206.994 123.038 206.994V204.383C122.365 204.383 121.618 204.515 121.023 205.002C120.377 205.53 120.148 206.275 120.148 206.985H122.76ZM123.038 206.994H153.518V204.383H123.038V206.994ZM153.518 206.994C153.697 206.994 153.808 207.013 153.867 207.029C153.924 207.045 153.915 207.052 153.879 207.023C153.838 206.99 153.808 206.945 153.794 206.91C153.783 206.884 153.796 206.899 153.796 206.985H156.408C156.408 206.275 156.178 205.53 155.533 205.002C154.938 204.515 154.191 204.383 153.518 204.383V206.994ZM153.796 206.985V209.347H156.408V206.985H153.796ZM153.796 209.347C153.796 209.433 153.783 209.448 153.794 209.422C153.808 209.387 153.838 209.342 153.879 209.309C153.915 209.28 153.924 209.287 153.867 209.303C153.808 209.319 153.697 209.338 153.518 209.338V211.949C154.191 211.949 154.938 211.817 155.533 211.33C156.178 210.802 156.408 210.058 156.408 209.347H153.796ZM153.518 209.338H141.043V211.949H153.518V209.338ZM139.738 210.644V245.416H142.349V210.644H139.738ZM139.738 245.416C139.738 245.585 139.718 245.683 139.704 245.73C139.691 245.772 139.687 245.758 139.717 245.725C139.731 245.71 139.746 245.697 139.761 245.687C139.776 245.678 139.785 245.674 139.784 245.675C139.779 245.677 139.727 245.694 139.603 245.694V248.306C140.318 248.306 141.085 248.104 141.65 247.482C142.193 246.885 142.349 246.116 142.349 245.416H139.738ZM139.603 245.694H136.953V248.306H139.603V245.694ZM136.953 245.694C136.829 245.694 136.777 245.677 136.772 245.675C136.771 245.674 136.779 245.678 136.794 245.687C136.809 245.697 136.825 245.71 136.839 245.725C136.868 245.758 136.865 245.772 136.852 245.73C136.838 245.683 136.818 245.585 136.818 245.416H134.206C134.206 246.116 134.363 246.885 134.906 247.482C135.471 248.104 136.237 248.306 136.953 248.306V245.694ZM136.818 245.416V210.644H134.206V245.416H136.818ZM135.512 209.338H123.038V211.949H135.512V209.338Z" fill="white"/>
<path d="M125.667 78.6562L94.3242 97.3125L125.667 115.222L157.009 97.3125L125.667 78.6562Z" fill="white" stroke="black" stroke-width="0.258078"/>
<g filter="url(#filter0_i_210_8100)">
<path d="M94.3241 60.0004L125.666 41.3441L125.667 78.6566L94.3241 97.3128L94.3241 60.0004Z" fill="#A8A8A8"/>
</g>
<path d="M94.3241 60.0004L125.666 41.3441L125.667 78.6566L94.3241 97.3128L94.3241 60.0004Z" stroke="black" stroke-width="0.258078"/>
<g filter="url(#filter1_i_210_8100)">
<path d="M109.995 142.088L78.6528 124.178L78.6528 159.998L109.995 177.908L109.995 142.088Z" fill="#4C8046"/>
</g>
<path d="M109.995 142.088L78.6528 124.178L78.6528 159.998L109.995 177.908L109.995 142.088Z" stroke="black" stroke-width="0.258078"/>
<g filter="url(#filter2_i_210_8100)">
<path d="M62.9821 60.0004L31.6397 41.3441L31.6397 78.6565L62.9821 97.3128L62.9821 60.0004Z" fill="#4C8046"/>
</g>
<path d="M62.9821 60.0004L31.6397 41.3441L31.6397 78.6565L62.9821 97.3128L62.9821 60.0004Z" stroke="black" stroke-width="0.258078"/>
<g filter="url(#filter3_i_210_8100)">
<path d="M47.3109 142.088L78.6532 124.178L78.6534 159.998L47.3108 177.908L47.3109 142.088Z" fill="#A8A8A8"/>
</g>
<path d="M47.3109 142.088L78.6532 124.178L78.6534 159.998L47.3108 177.908L47.3109 142.088Z" stroke="black" stroke-width="0.258078"/>
<path d="M78.6532 106.268L47.3108 124.178L78.6532 142.088L109.996 124.178L78.6532 106.268Z" fill="white" stroke="black" stroke-width="0.258078"/>
<g filter="url(#filter4_i_210_8100)">
<path d="M78.6532 142.087V159.997L109.996 142.087V177.907L125.667 168.952V133.132L157.009 115.223V97.3126L125.667 115.223V78.6562L109.996 87.6112V124.177L78.6532 142.087Z" fill="#A8A8A8"/>
</g>
<path d="M78.6532 142.087V159.997L109.996 142.087V177.907L125.667 168.952V133.132L157.009 115.223V97.3126L125.667 115.223V78.6562L109.996 87.6112V124.177L78.6532 142.087Z" stroke="black" stroke-width="0.258078"/>
<path d="M47.3108 32.3891L31.6396 41.3441L62.982 60.0003L31.6396 78.6566L47.3108 87.6115L78.6532 68.9553L109.996 87.6116L125.667 78.6566L94.3244 60.0004L125.667 41.3441L109.996 32.3891L78.6532 51.0453L47.3108 32.3891Z" fill="white" stroke="black" stroke-width="0.258078"/>
<path d="M109.995 87.6114L78.6525 68.955L78.6525 106.267L109.995 124.178L109.995 87.6114Z" fill="#4C8046" stroke="black" stroke-width="0.258078"/>
<path d="M31.6394 78.6562L0.296936 97.3125L31.6394 115.222L62.9818 97.3125L31.6394 78.6562Z" fill="white" stroke="black" stroke-width="0.258078"/>
<path d="M47.3105 87.6115L78.653 68.9552L78.653 106.268L47.3105 124.178L47.3105 87.6115Z" fill="#A8A8A8" stroke="black" stroke-width="0.258078"/>
<g filter="url(#filter5_i_210_8100)">
<path d="M78.6531 142.087V159.997L47.3106 142.087V177.907L31.6394 168.952V133.132L0.296936 115.19V97.3125L31.6394 115.222V78.6562L47.3106 87.6112V124.177L78.6531 142.087Z" fill="#4C8046"/>
</g>
<path d="M78.6531 142.087V159.997L47.3106 142.087V177.907L31.6394 168.952V133.132L0.296936 115.19V97.3125L31.6394 115.222V78.6562L47.3106 87.6112V124.177L78.6531 142.087Z" stroke="black" stroke-width="0.258078"/>
<defs>
<filter id="filter0_i_210_8100" x="94.1951" y="41.1172" width="32.1167" height="57.4549" filterUnits="userSpaceOnUse" color-interpolation-filters="sRGB">
<feFlood flood-opacity="0" result="BackgroundImageFix"/>
<feBlend mode="normal" in="SourceGraphic" in2="BackgroundImageFix" result="shape"/>
<feColorMatrix in="SourceAlpha" type="matrix" values="0 0 0 0 0 0 0 0 0 0 0 0 0 0 0 0 0 0 127 0" result="hardAlpha"/>
<feOffset dx="0.516155" dy="1.03231"/>
<feGaussianBlur stdDeviation="2.58078"/>
<feComposite in2="hardAlpha" operator="arithmetic" k2="-1" k3="1"/>
<feColorMatrix type="matrix" values="0 0 0 0 0 0 0 0 0 0 0 0 0 0 0 0 0 0 0.25 0"/>
<feBlend mode="normal" in2="shape" result="effect1_innerShadow_210_8100"/>
</filter>
<filter id="filter1_i_210_8100" x="78.5237" y="123.955" width="32.1169" height="55.2074" filterUnits="userSpaceOnUse" color-interpolation-filters="sRGB">
<feFlood flood-opacity="0" result="BackgroundImageFix"/>
<feBlend mode="normal" in="SourceGraphic" in2="BackgroundImageFix" result="shape"/>
<feColorMatrix in="SourceAlpha" type="matrix" values="0 0 0 0 0 0 0 0 0 0 0 0 0 0 0 0 0 0 127 0" result="hardAlpha"/>
<feOffset dx="0.516155" dy="1.03231"/>
<feGaussianBlur stdDeviation="2.58078"/>
<feComposite in2="hardAlpha" operator="arithmetic" k2="-1" k3="1"/>
<feColorMatrix type="matrix" values="0 0 0 0 0 0 0 0 0 0 0 0 0 0 0 0 0 0 0.25 0"/>
<feBlend mode="normal" in2="shape" result="effect1_innerShadow_210_8100"/>
</filter>
<filter id="filter2_i_210_8100" x="31.5107" y="41.1172" width="32.1166" height="57.4549" filterUnits="userSpaceOnUse" color-interpolation-filters="sRGB">
<feFlood flood-opacity="0" result="BackgroundImageFix"/>
<feBlend mode="normal" in="SourceGraphic" in2="BackgroundImageFix" result="shape"/>
<feColorMatrix in="SourceAlpha" type="matrix" values="0 0 0 0 0 0 0 0 0 0 0 0 0 0 0 0 0 0 127 0" result="hardAlpha"/>
<feOffset dx="0.516155" dy="1.03231"/>
<feGaussianBlur stdDeviation="2.58078"/>
<feComposite in2="hardAlpha" operator="arithmetic" k2="-1" k3="1"/>
<feColorMatrix type="matrix" values="0 0 0 0 0 0 0 0 0 0 0 0 0 0 0 0 0 0 0.25 0"/>
<feBlend mode="normal" in2="shape" result="effect1_innerShadow_210_8100"/>
</filter>
<filter id="filter3_i_210_8100" x="47.1818" y="123.956" width="32.1167" height="55.207" filterUnits="userSpaceOnUse" color-interpolation-filters="sRGB">
<feFlood flood-opacity="0" result="BackgroundImageFix"/>
<feBlend mode="normal" in="SourceGraphic" in2="BackgroundImageFix" result="shape"/>
<feColorMatrix in="SourceAlpha" type="matrix" values="0 0 0 0 0 0 0 0 0 0 0 0 0 0 0 0 0 0 127 0" result="hardAlpha"/>
<feOffset dx="0.516155" dy="1.03231"/>
<feGaussianBlur stdDeviation="2.58078"/>
<feComposite in2="hardAlpha" operator="arithmetic" k2="-1" k3="1"/>
<feColorMatrix type="matrix" values="0 0 0 0 0 0 0 0 0 0 0 0 0 0 0 0 0 0 0.25 0"/>
<feBlend mode="normal" in2="shape" result="effect1_innerShadow_210_8100"/>
</filter>
<filter id="filter4_i_210_8100" x="78.5241" y="78.4338" width="79.1304" height="100.728" filterUnits="userSpaceOnUse" color-interpolation-filters="sRGB">
<feFlood flood-opacity="0" result="BackgroundImageFix"/>
<feBlend mode="normal" in="SourceGraphic" in2="BackgroundImageFix" result="shape"/>
<feColorMatrix in="SourceAlpha" type="matrix" values="0 0 0 0 0 0 0 0 0 0 0 0 0 0 0 0 0 0 127 0" result="hardAlpha"/>
<feOffset dx="0.516155" dy="1.03231"/>
<feGaussianBlur stdDeviation="2.58078"/>
<feComposite in2="hardAlpha" operator="arithmetic" k2="-1" k3="1"/>
<feColorMatrix type="matrix" values="0 0 0 0 0 0 0 0 0 0 0 0 0 0 0 0 0 0 0.25 0"/>
<feBlend mode="normal" in2="shape" result="effect1_innerShadow_210_8100"/>
</filter>
<filter id="filter5_i_210_8100" x="0.167908" y="78.4338" width="79.1304" height="100.728" filterUnits="userSpaceOnUse" color-interpolation-filters="sRGB">
<feFlood flood-opacity="0" result="BackgroundImageFix"/>
<feBlend mode="normal" in="SourceGraphic" in2="BackgroundImageFix" result="shape"/>
<feColorMatrix in="SourceAlpha" type="matrix" values="0 0 0 0 0 0 0 0 0 0 0 0 0 0 0 0 0 0 127 0" result="hardAlpha"/>
<feOffset dx="0.516155" dy="1.03231"/>
<feGaussianBlur stdDeviation="2.58078"/>
<feComposite in2="hardAlpha" operator="arithmetic" k2="-1" k3="1"/>
<feColorMatrix type="matrix" values="0 0 0 0 0 0 0 0 0 0 0 0 0 0 0 0 0 0 0.25 0"/>
<feBlend mode="normal" in2="shape" result="effect1_innerShadow_210_8100"/>
</filter>
</defs>
</svg>
