<svg width="219" height="345" viewBox="0 0 219 345" fill="none" xmlns="http://www.w3.org/2000/svg">
<path d="M7.83514 338.809C6.42182 337.529 6.0485 336.409 6.71515 335.449L8.79512 332.449C9.51511 331.409 10.6751 331.489 12.2751 332.689C14.3817 334.263 16.5683 335.556 18.835 336.569C21.1283 337.583 23.9016 338.089 27.1548 338.089C29.5548 338.089 31.5814 337.729 33.2348 337.009C34.8881 336.289 36.208 335.263 37.1947 333.929C38.208 332.569 38.7147 330.929 38.7147 329.009C38.7147 327.623 38.5013 326.343 38.0747 325.169C37.6747 323.969 37.0214 322.969 36.1147 322.169C35.2081 321.369 34.2614 320.743 33.2748 320.289C31.6481 319.543 29.2081 318.676 25.9549 317.69C22.7282 316.703 19.9016 315.636 17.475 314.49C15.075 313.343 13.1551 311.956 11.7151 310.33C10.3018 308.703 9.35511 307.036 8.87512 305.33C8.42179 303.596 8.19513 301.623 8.19513 299.41C8.19513 296.023 9.18178 293.103 11.1551 290.65C13.1284 288.197 15.5417 286.57 18.395 285.77C21.2749 284.97 24.1949 284.57 27.1548 284.57C30.5415 284.57 33.4881 285.01 35.9947 285.89C38.5013 286.77 40.7413 287.917 42.7146 289.33C44.1013 290.317 44.4212 291.357 43.6746 292.45L41.6346 295.37C41.0213 296.25 39.8213 296.063 38.0347 294.81C36.6747 293.85 35.0081 292.957 33.0348 292.13C31.0881 291.277 29.1548 290.85 27.2348 290.85C24.7815 290.85 22.7416 291.143 21.1149 291.73C19.4883 292.29 18.2083 293.25 17.275 294.61C16.3417 295.97 15.875 297.543 15.875 299.33C15.875 300.45 15.9817 301.49 16.195 302.45C16.4083 303.383 16.955 304.343 17.835 305.33C18.715 306.316 19.7816 307.076 21.0349 307.61C22.7149 308.33 25.3149 309.183 28.8348 310.17C32.3814 311.13 35.4747 312.316 38.1147 313.73C40.568 315.036 42.3279 316.41 43.3946 317.85C44.4879 319.263 45.3279 320.809 45.9146 322.489C46.5279 324.143 46.8345 326.009 46.8345 328.089C46.8345 331.876 45.8612 335.036 43.9146 337.569C41.968 340.103 39.6613 341.863 36.9947 342.849C34.3281 343.836 30.9815 344.329 26.9548 344.329C22.1283 344.329 18.1283 343.769 14.955 342.649C11.7817 341.529 9.40845 340.249 7.83514 338.809ZM56.9544 321.249V287.97C56.9544 286.503 57.621 285.77 58.9544 285.77H62.6343C63.9676 285.77 64.6343 286.503 64.6343 287.97V320.049C64.6343 327.516 65.6876 332.396 67.7942 334.689C69.9275 336.956 73.3941 338.089 78.1941 338.089C82.994 338.089 86.4473 336.956 88.5539 334.689C90.6872 332.396 91.7539 327.516 91.7539 320.049V287.97C91.7539 286.503 92.4205 285.77 93.7538 285.77H97.4338C98.7671 285.77 99.4338 286.503 99.4338 287.97V321.249C99.4338 329.703 97.4871 335.663 93.5938 339.129C89.7272 342.596 84.594 344.329 78.1941 344.329C71.7942 344.329 66.6476 342.596 62.7543 339.129C58.8877 335.663 56.9544 329.703 56.9544 321.249ZM109.914 314.45C109.914 305.116 112.207 297.81 116.793 292.53C121.407 287.223 128.047 284.57 136.713 284.57C145.38 284.57 152.006 287.223 156.593 292.53C161.206 297.81 163.513 305.116 163.513 314.45C163.513 323.783 161.206 331.103 156.593 336.409C152.006 341.689 145.38 344.329 136.713 344.329C128.047 344.329 121.407 341.689 116.793 336.409C112.207 331.103 109.914 323.783 109.914 314.45ZM118.113 314.45C118.113 321.916 119.647 327.729 122.713 331.889C125.78 336.023 130.447 338.089 136.713 338.089C142.98 338.089 147.646 336.023 150.713 331.889C153.78 327.729 155.313 321.916 155.313 314.45C155.313 306.983 153.78 301.183 150.713 297.05C147.646 292.89 142.98 290.81 136.713 290.81C130.447 290.81 125.78 292.89 122.713 297.05C119.647 301.183 118.113 306.983 118.113 314.45ZM170.833 292.65C169.366 292.65 168.633 292.05 168.633 290.85V287.57C168.633 286.37 169.366 285.77 170.833 285.77H213.152C214.619 285.77 215.352 286.37 215.352 287.57V290.85C215.352 292.05 214.619 292.65 213.152 292.65H195.832V340.929C195.832 342.396 195.166 343.129 193.832 343.129H190.152C188.819 343.129 188.152 342.396 188.152 340.929V292.65H170.833Z" fill="#689660"/>
<path d="M7.83514 338.809L9.05937 337.472L9.05232 337.465L7.83514 338.809ZM6.71515 335.449L8.20449 336.484L8.20526 336.482L6.71515 335.449ZM8.79512 332.449L10.2852 333.482L10.2859 333.481L8.79512 332.449ZM12.2751 332.689L11.1871 334.14L11.1901 334.142L12.2751 332.689ZM18.835 336.569L18.0949 338.225L18.1021 338.228L18.835 336.569ZM37.1947 333.929L35.7407 332.846L35.7371 332.851L37.1947 333.929ZM38.0747 325.169L36.3545 325.743L36.3622 325.766L36.3706 325.789L38.0747 325.169ZM33.2747 320.289L34.0318 318.642L34.0312 318.642L33.2747 320.289ZM25.9549 317.69L25.4246 319.424L25.4286 319.425L25.9549 317.69ZM17.475 314.49L16.6933 316.126L16.7003 316.129L17.475 314.49ZM11.7151 310.33L10.3463 311.519L10.3518 311.525L10.3574 311.532L11.7151 310.33ZM8.87512 305.33L7.12089 305.789L7.1251 305.805L7.12961 305.821L8.87512 305.33ZM18.395 285.77L17.9097 284.023L17.9055 284.024L18.395 285.77ZM42.7146 289.33L41.6588 290.804L41.6634 290.807L42.7146 289.33ZM43.6746 292.45L45.161 293.488L45.1665 293.48L45.172 293.473L43.6746 292.45ZM41.6346 295.37L40.1482 294.331L40.1471 294.333L41.6346 295.37ZM38.0347 294.81L36.989 296.291L36.9934 296.294L38.0347 294.81ZM33.0348 292.13L32.3068 293.791L32.3204 293.797L32.3341 293.802L33.0348 292.13ZM21.1149 291.73L21.7052 293.444L21.7177 293.44L21.7301 293.436L21.1149 291.73ZM16.195 302.45L14.4249 302.843L14.4274 302.854L16.195 302.45ZM21.0349 307.61L21.7492 305.943L21.7449 305.941L21.0349 307.61ZM28.8348 310.17L28.3454 311.916L28.3532 311.918L28.3611 311.92L28.8348 310.17ZM38.1147 313.73L37.2589 315.328L37.2623 315.33L38.1147 313.73ZM43.3946 317.85L41.9376 318.929L41.9488 318.944L41.9604 318.959L43.3946 317.85ZM45.9146 322.489L44.2027 323.087L44.2085 323.104L44.2145 323.12L45.9146 322.489ZM43.9146 337.569L42.4768 336.464L43.9146 337.569ZM9.05232 337.465C8.4493 336.919 8.26043 336.571 8.21534 336.436C8.19958 336.389 8.21274 336.402 8.20562 336.452C8.19841 336.504 8.18104 336.517 8.20449 336.484L5.22582 334.415C4.56255 335.37 4.4097 336.487 4.77497 337.583C5.10321 338.567 5.80766 339.419 6.61795 340.153L9.05232 337.465ZM8.20526 336.482L10.2852 333.482L7.30501 331.416L5.22504 334.416L8.20526 336.482ZM10.2859 333.481C10.3291 333.419 10.3222 333.453 10.2422 333.494C10.2047 333.513 10.1654 333.526 10.13 333.533C10.0957 333.54 10.0771 333.538 10.0803 333.538C10.0929 333.539 10.1919 333.55 10.3947 333.644C10.5955 333.737 10.8588 333.894 11.1871 334.14L13.363 331.239C12.4613 330.562 11.429 329.996 10.3299 329.92C9.04707 329.832 7.98954 330.427 7.3043 331.417L10.2859 333.481ZM11.1901 334.142C13.3976 335.791 15.6992 337.154 18.0949 338.225L19.575 334.914C17.4374 333.958 15.3658 332.734 13.3601 331.237L11.1901 334.142ZM18.1021 338.228C20.684 339.369 23.7211 339.902 27.1548 339.902V336.276C24.082 336.276 21.5725 335.796 19.5678 334.911L18.1021 338.228ZM27.1548 339.902C29.7258 339.902 32.0148 339.518 33.9587 338.672L32.5108 335.347C31.1481 335.94 29.3839 336.276 27.1548 336.276V339.902ZM33.9587 338.672C35.8773 337.836 37.4602 336.619 38.6522 335.008L35.7371 332.851C34.9559 333.906 33.8988 334.742 32.5108 335.347L33.9587 338.672ZM38.6487 335.013C39.9255 333.299 40.5279 331.266 40.5279 329.009H36.9014C36.9014 330.593 36.4905 331.84 35.7407 332.846L38.6487 335.013ZM40.5279 329.009C40.5279 327.435 40.2852 325.942 39.7787 324.55L36.3706 325.789C36.7175 326.743 36.9014 327.811 36.9014 329.009H40.5279ZM39.7949 324.596C39.2986 323.107 38.4721 321.831 37.3144 320.81L34.915 323.529C35.5706 324.108 36.0508 324.832 36.3545 325.743L39.7949 324.596ZM37.3144 320.81C36.2899 319.906 35.1963 319.177 34.0318 318.642L32.5177 321.937C33.3265 322.309 34.1262 322.833 34.915 323.529L37.3144 320.81ZM34.0312 318.642C32.2906 317.843 29.7565 316.948 26.4811 315.954L25.4286 319.425C28.6598 320.405 31.0056 321.243 32.5183 321.937L34.0312 318.642ZM26.4851 315.956C23.3219 314.988 20.5801 313.951 18.2497 312.85L16.7003 316.129C19.2231 317.321 22.1346 318.417 25.4246 319.424L26.4851 315.956ZM18.2567 312.853C16.028 311.789 14.32 310.537 13.0728 309.128L10.3574 311.532C11.9901 313.376 14.1221 314.897 16.6933 316.126L18.2567 312.853ZM13.0838 309.14C11.809 307.673 11.0142 306.238 10.6206 304.839L7.12961 305.821C7.69601 307.834 8.79456 309.733 10.3463 311.519L13.0838 309.14ZM10.6293 304.871C10.2231 303.318 10.0084 301.503 10.0084 299.41H6.3819C6.3819 301.743 6.62048 303.875 7.12089 305.789L10.6293 304.871ZM10.0084 299.41C10.0084 296.403 10.874 293.892 12.568 291.786L9.74219 289.513C7.48955 292.314 6.3819 295.643 6.3819 299.41H10.0084ZM12.568 291.786C14.3202 289.608 16.4183 288.207 18.8845 287.516L17.9055 284.024C14.6651 284.933 11.9366 286.785 9.74219 289.513L12.568 291.786ZM18.8803 287.517C21.6038 286.761 24.3605 286.383 27.1548 286.383V282.757C24.0293 282.757 20.9461 283.179 17.9097 284.023L18.8803 287.517ZM27.1548 286.383C30.3904 286.383 33.1252 286.804 35.3941 287.601L36.5953 284.179C33.8509 283.216 30.6925 282.757 27.1548 282.757V286.383ZM35.3941 287.601C37.7537 288.429 39.8378 289.5 41.6588 290.804L43.7704 287.856C41.6449 286.333 39.2489 285.111 36.5953 284.179L35.3941 287.601ZM41.6634 290.807C41.9189 290.989 42.076 291.139 42.1676 291.248C42.2574 291.355 42.2669 291.401 42.2615 291.383C42.253 291.355 42.2508 291.313 42.2566 291.284C42.2602 291.266 42.2556 291.313 42.1772 291.427L45.172 293.473C45.7819 292.579 46.0852 291.479 45.7276 290.317C45.4007 289.254 44.6123 288.455 43.7658 287.853L41.6634 290.807ZM42.1882 291.411L40.1482 294.331L43.121 296.408L45.161 293.488L42.1882 291.411ZM40.1471 294.333C40.1788 294.288 40.2689 294.193 40.4171 294.136C40.5507 294.085 40.6187 294.108 40.5534 294.098C40.4809 294.087 40.319 294.045 40.0521 293.917C39.79 293.79 39.4658 293.599 39.076 293.325L36.9934 296.294C37.9604 296.973 38.9823 297.524 39.9959 297.682C40.5306 297.765 41.1252 297.748 41.7122 297.524C42.3137 297.294 42.7838 296.892 43.1222 296.407L40.1471 294.333ZM39.0803 293.329C37.5872 292.275 35.7977 291.321 33.7354 290.458L32.3341 293.802C34.2184 294.592 35.7622 295.425 36.989 296.291L39.0803 293.329ZM33.7627 290.469C31.6113 289.526 29.431 289.037 27.2348 289.037V292.663C28.8786 292.663 30.565 293.027 32.3068 293.791L33.7627 290.469ZM27.2348 289.037C24.6525 289.037 22.3875 289.343 20.4998 290.024L21.7301 293.436C23.0957 292.943 24.9106 292.663 27.2348 292.663V289.037ZM20.5247 290.015C18.5473 290.696 16.9432 291.889 15.78 293.584L18.77 295.636C19.4735 294.611 20.4292 293.884 21.7052 293.444L20.5247 290.015ZM15.78 293.584C14.622 295.271 14.0618 297.209 14.0618 299.33H17.6882C17.6882 297.877 18.0614 296.669 18.77 295.636L15.78 293.584ZM14.0618 299.33C14.0618 300.564 14.1793 301.738 14.425 302.843L17.9651 302.056C17.7841 301.242 17.6882 300.335 17.6882 299.33H14.0618ZM14.4274 302.854C14.7299 304.178 15.4719 305.404 16.4818 306.537L19.1882 304.123C18.4381 303.282 18.0868 302.589 17.9627 302.046L14.4274 302.854ZM16.4818 306.537C17.545 307.729 18.8335 308.643 20.325 309.278L21.7449 305.941C20.7297 305.509 19.8849 304.904 19.1882 304.123L16.4818 306.537ZM20.3207 309.276C22.1145 310.045 24.8086 310.924 28.3454 311.916L29.3242 308.424C25.8211 307.442 23.3153 306.614 21.7492 305.943L20.3207 309.276ZM28.3611 311.92C31.8037 312.852 34.7638 313.992 37.2589 315.328L38.9705 312.131C36.1857 310.64 32.9592 309.408 29.3086 308.419L28.3611 311.92ZM37.2623 315.33C39.5958 316.573 41.0953 317.792 41.9376 318.929L44.8516 316.77C43.5606 315.027 41.5401 313.5 38.9671 312.129L37.2623 315.33ZM41.9604 318.959C42.9347 320.218 43.6807 321.592 44.2027 323.087L47.6264 321.892C46.9751 320.027 46.0411 318.307 44.8288 316.74L41.9604 318.959ZM44.2145 323.12C44.7409 324.539 45.0213 326.187 45.0213 328.089H48.6478C48.6478 325.832 48.3149 323.747 47.6146 321.859L44.2145 323.12ZM45.0213 328.089C45.0213 331.553 44.1371 334.304 42.4768 336.464L45.3524 338.674C47.5854 335.768 48.6478 332.199 48.6478 328.089H45.0213ZM42.4768 336.464C40.7118 338.761 38.6734 340.295 36.3655 341.149L37.6239 344.55C40.6492 343.43 43.2241 341.444 45.3524 338.674L42.4768 336.464ZM36.3655 341.149C33.9652 342.037 30.8489 342.516 26.9548 342.516V346.142C31.114 346.142 34.691 345.635 37.6239 344.55L36.3655 341.149ZM26.9548 342.516C22.2522 342.516 18.4736 341.968 15.5585 340.939L14.3515 344.359C17.783 345.57 22.0043 346.142 26.9548 346.142V342.516ZM15.5585 340.939C12.4971 339.859 10.3792 338.68 9.05935 337.472L6.61092 340.147C8.43773 341.819 11.0664 343.2 14.3515 344.359L15.5585 340.939ZM67.7942 334.689L66.4589 335.916L66.4663 335.924L66.4738 335.932L67.7942 334.689ZM88.5539 334.689L87.2263 333.454L87.2257 333.455L88.5539 334.689ZM93.5938 339.129L92.388 337.775L92.3834 337.779L93.5938 339.129ZM62.7543 339.129L61.5439 340.479L61.5485 340.483L62.7543 339.129ZM58.7676 321.249V287.97H55.1412V321.249H58.7676ZM58.7676 287.97C58.7676 287.735 58.795 287.598 58.8147 287.533C58.8324 287.475 58.8373 287.494 58.7961 287.54C58.777 287.561 58.7554 287.579 58.7344 287.593C58.714 287.606 58.7016 287.611 58.7036 287.61C58.7104 287.607 58.7825 287.583 58.9544 287.583V283.957C57.9613 283.957 56.8968 284.238 56.1127 285.1C55.3584 285.93 55.1412 286.998 55.1412 287.97H58.7676ZM58.9544 287.583H62.6343V283.957H58.9544V287.583ZM62.6343 287.583C62.8061 287.583 62.8782 287.607 62.8851 287.61C62.8871 287.611 62.8747 287.606 62.8542 287.593C62.8333 287.579 62.8116 287.561 62.7926 287.54C62.7514 287.494 62.7563 287.475 62.774 287.533C62.7937 287.598 62.821 287.735 62.821 287.97H66.4475C66.4475 286.998 66.2302 285.93 65.476 285.1C64.6919 284.238 63.6274 283.957 62.6343 283.957V287.583ZM62.821 287.97V320.049H66.4475V287.97H62.821ZM62.821 320.049C62.821 323.855 63.0883 327.081 63.6519 329.692C64.2095 332.276 65.0933 334.429 66.4589 335.916L69.1296 333.463C68.3885 332.656 67.6923 331.223 67.1967 328.927C66.7069 326.658 66.4475 323.711 66.4475 320.049H62.821ZM66.4738 335.932C69.0978 338.72 73.1615 339.902 78.1941 339.902V336.276C73.6268 336.276 70.7573 335.192 69.1146 333.447L66.4738 335.932ZM78.1941 339.902C83.2241 339.902 87.2822 338.721 89.8821 335.924L87.2257 333.455C85.6123 335.191 82.7639 336.276 78.1941 336.276V339.902ZM89.8815 335.924C91.264 334.438 92.16 332.283 92.7253 329.697C93.2964 327.084 93.5671 323.856 93.5671 320.049H89.9406C89.9406 323.71 89.678 326.655 89.1825 328.922C88.6812 331.216 87.9771 332.647 87.2263 333.454L89.8815 335.924ZM93.5671 320.049V287.97H89.9406V320.049H93.5671ZM93.5671 287.97C93.5671 287.735 93.5945 287.598 93.6142 287.533C93.6319 287.475 93.6367 287.494 93.5955 287.54C93.5765 287.561 93.5549 287.579 93.5339 287.593C93.5134 287.606 93.5011 287.611 93.5031 287.61C93.5099 287.607 93.582 287.583 93.7538 287.583V283.957C92.7608 283.957 91.6962 284.238 90.9122 285.1C90.1579 285.93 89.9406 286.998 89.9406 287.97H93.5671ZM93.7538 287.583H97.4338V283.957H93.7538V287.583ZM97.4338 287.583C97.6056 287.583 97.6777 287.607 97.6846 287.61C97.6865 287.611 97.6742 287.606 97.6537 287.593C97.6327 287.579 97.6111 287.561 97.5921 287.54C97.5509 287.494 97.5558 287.475 97.5734 287.533C97.5931 287.598 97.6205 287.735 97.6205 287.97H101.247C101.247 286.998 101.03 285.93 100.275 285.1C99.4914 284.238 98.4268 283.957 97.4338 283.957V287.583ZM97.6205 287.97V321.249H101.247V287.97H97.6205ZM97.6205 321.249C97.6205 329.499 95.7104 334.817 92.388 337.775L94.7996 340.483C99.2639 336.508 101.247 329.907 101.247 321.249H97.6205ZM92.3834 337.779C88.9222 340.882 84.2556 342.516 78.1941 342.516V346.142C84.9323 346.142 90.5323 344.309 94.8043 340.479L92.3834 337.779ZM78.1941 342.516C72.1331 342.516 67.45 340.882 63.9601 337.775L61.5485 340.483C65.8451 344.309 71.4553 346.142 78.1941 346.142V342.516ZM63.9647 337.779C60.6659 334.822 58.7676 329.502 58.7676 321.249H55.1412C55.1412 329.904 57.1095 336.504 61.5439 340.479L63.9647 337.779ZM116.793 292.53L115.425 291.34L115.425 291.341L116.793 292.53ZM156.593 292.53L155.221 293.716L155.227 293.723L156.593 292.53ZM156.593 336.409L155.224 335.22L155.224 335.22L156.593 336.409ZM116.793 336.409L115.422 337.595L115.428 337.602L116.793 336.409ZM122.713 331.889L121.254 332.965L121.257 332.97L122.713 331.889ZM150.713 331.889L152.169 332.97L152.172 332.965L150.713 331.889ZM150.713 297.05L149.253 298.126L149.257 298.13L150.713 297.05ZM122.713 297.05L124.17 298.13L124.173 298.126L122.713 297.05ZM111.727 314.45C111.727 305.405 113.946 298.572 118.162 293.719L115.425 291.341C110.467 297.047 108.1 304.827 108.1 314.45H111.727ZM118.162 293.72C122.352 288.899 128.439 286.383 136.713 286.383V282.757C127.654 282.757 120.461 285.547 115.425 291.34L118.162 293.72ZM136.713 286.383C144.988 286.383 151.058 288.899 155.221 293.716L157.965 291.344C152.954 285.547 145.772 282.757 136.713 282.757V286.383ZM155.227 293.723C159.468 298.576 161.7 305.408 161.7 314.45H165.326C165.326 304.825 162.944 297.043 157.958 291.337L155.227 293.723ZM161.7 314.45C161.7 323.491 159.468 330.338 155.224 335.22L157.961 337.599C162.944 331.867 165.326 324.075 165.326 314.45H161.7ZM155.224 335.22C151.062 340.011 144.991 342.516 136.713 342.516V346.142C145.769 346.142 152.951 343.367 157.962 337.598L155.224 335.22ZM136.713 342.516C128.436 342.516 122.349 340.011 118.159 335.216L115.428 337.602C120.465 343.367 127.657 346.142 136.713 346.142V342.516ZM118.165 335.224C113.946 330.342 111.727 323.493 111.727 314.45H108.1C108.1 324.072 110.468 331.863 115.422 337.595L118.165 335.224ZM116.3 314.45C116.3 322.138 117.876 328.382 121.254 332.965L124.173 330.813C121.418 327.076 119.927 321.695 119.927 314.45H116.3ZM121.257 332.97C124.741 337.666 130.013 339.902 136.713 339.902V336.276C130.881 336.276 126.819 334.379 124.17 330.809L121.257 332.97ZM136.713 339.902C143.414 339.902 148.685 337.666 152.169 332.97L149.257 330.809C146.608 334.379 142.546 336.276 136.713 336.276V339.902ZM152.172 332.965C155.551 328.382 157.126 322.138 157.126 314.45H153.5C153.5 321.695 152.008 327.076 149.253 330.813L152.172 332.965ZM157.126 314.45C157.126 306.763 155.551 300.528 152.169 295.969L149.257 298.13C152.008 301.838 153.5 307.203 153.5 314.45H157.126ZM152.172 295.974C148.69 291.25 143.418 288.997 136.713 288.997V292.623C142.541 292.623 146.603 294.53 149.253 298.126L152.172 295.974ZM136.713 288.997C130.008 288.997 124.736 291.25 121.254 295.974L124.173 298.126C126.824 294.53 130.885 292.623 136.713 292.623V288.997ZM121.257 295.969C117.875 300.528 116.3 306.763 116.3 314.45H119.927C119.927 307.203 121.418 301.838 124.17 298.13L121.257 295.969ZM195.832 292.65V290.837H194.019V292.65H195.832ZM188.152 292.65H189.966V290.837H188.152V292.65ZM170.833 290.837C170.584 290.837 170.43 290.811 170.347 290.788C170.269 290.767 170.281 290.756 170.331 290.797C170.388 290.843 170.43 290.905 170.449 290.953C170.464 290.99 170.446 290.969 170.446 290.85H166.819C166.819 291.836 167.139 292.87 168.035 293.603C168.861 294.279 169.898 294.463 170.833 294.463V290.837ZM170.446 290.85V287.57H166.819V290.85H170.446ZM170.446 287.57C170.446 287.451 170.464 287.43 170.449 287.467C170.43 287.514 170.388 287.577 170.331 287.623C170.281 287.664 170.269 287.653 170.347 287.632C170.43 287.609 170.584 287.583 170.833 287.583V283.957C169.898 283.957 168.861 284.141 168.035 284.817C167.139 285.55 166.819 286.584 166.819 287.57H170.446ZM170.833 287.583H213.152V283.957H170.833V287.583ZM213.152 287.583C213.401 287.583 213.555 287.609 213.637 287.632C213.716 287.653 213.703 287.664 213.654 287.623C213.597 287.577 213.555 287.514 213.535 287.467C213.52 287.43 213.539 287.451 213.539 287.57H217.165C217.165 286.584 216.846 285.55 215.95 284.817C215.124 284.141 214.086 283.957 213.152 283.957V287.583ZM213.539 287.57V290.85H217.165V287.57H213.539ZM213.539 290.85C213.539 290.969 213.52 290.99 213.535 290.953C213.555 290.905 213.597 290.843 213.654 290.797C213.703 290.756 213.716 290.767 213.637 290.788C213.555 290.811 213.401 290.837 213.152 290.837V294.463C214.086 294.463 215.124 294.279 215.95 293.603C216.846 292.87 217.165 291.836 217.165 290.85H213.539ZM213.152 290.837H195.832V294.463H213.152V290.837ZM194.019 292.65V340.929H197.646V292.65H194.019ZM194.019 340.929C194.019 341.164 193.992 341.301 193.972 341.366C193.954 341.424 193.949 341.405 193.991 341.359C194.01 341.338 194.031 341.32 194.052 341.306C194.073 341.293 194.085 341.289 194.083 341.289C194.076 341.292 194.004 341.316 193.832 341.316V344.942C194.825 344.942 195.89 344.661 196.674 343.799C197.428 342.969 197.646 341.902 197.646 340.929H194.019ZM193.832 341.316H190.152V344.942H193.832V341.316ZM190.152 341.316C189.981 341.316 189.908 341.292 189.902 341.289C189.9 341.289 189.912 341.293 189.932 341.306C189.953 341.32 189.975 341.338 189.994 341.359C190.035 341.405 190.03 341.424 190.013 341.366C189.993 341.301 189.966 341.164 189.966 340.929H186.339C186.339 341.902 186.556 342.969 187.311 343.799C188.095 344.661 189.159 344.942 190.152 344.942V341.316ZM189.966 340.929V292.65H186.339V340.929H189.966ZM188.152 290.837H170.833V294.463H188.152V290.837Z" fill="#689660"/>
<path d="M174.482 109.21L130.965 135.114L174.482 159.981L218 135.114L174.482 109.21Z" fill="white" stroke="black" stroke-width="0.358329"/>
<g filter="url(#filter0_i_212_8319)">
<path d="M130.965 83.3075L174.482 57.4042L174.483 109.211L130.965 135.114L130.965 83.3075Z" fill="#A8A8A8"/>
</g>
<path d="M130.965 83.3075L174.482 57.4042L174.483 109.211L130.965 135.114L130.965 83.3075Z" stroke="black" stroke-width="0.358329"/>
<g filter="url(#filter1_i_212_8319)">
<path d="M152.723 197.283L109.206 172.415L109.206 222.15L152.724 247.017L152.723 197.283Z" fill="#4C8046"/>
</g>
<path d="M152.723 197.283L109.206 172.415L109.206 222.15L152.724 247.017L152.723 197.283Z" stroke="black" stroke-width="0.358329"/>
<g filter="url(#filter2_i_212_8319)">
<path d="M87.4478 83.3075L43.9303 57.4042L43.9303 109.211L87.4478 135.114L87.4478 83.3075Z" fill="#4C8046"/>
</g>
<path d="M87.4478 83.3075L43.9303 57.4042L43.9303 109.211L87.4478 135.114L87.4478 83.3075Z" stroke="black" stroke-width="0.358329"/>
<g filter="url(#filter3_i_212_8319)">
<path d="M65.689 197.283L109.206 172.415L109.207 222.15L65.689 247.017L65.689 197.283Z" fill="#A8A8A8"/>
</g>
<path d="M65.689 197.283L109.206 172.415L109.207 222.15L65.689 247.017L65.689 197.283Z" stroke="black" stroke-width="0.358329"/>
<path d="M109.206 147.548L65.6887 172.415L109.206 197.282L152.724 172.415L109.206 147.548Z" fill="white" stroke="black" stroke-width="0.358329"/>
<g filter="url(#filter4_i_212_8319)">
<path d="M109.206 197.282V222.149L152.724 197.282V247.016L174.482 234.582V184.848L218 159.981V135.114L174.482 159.981V109.21L152.724 121.644V172.415L109.206 197.282Z" fill="#A8A8A8"/>
</g>
<path d="M109.206 197.282V222.149L152.724 197.282V247.016L174.482 234.582V184.848L218 159.981V135.114L174.482 159.981V109.21L152.724 121.644V172.415L109.206 197.282Z" stroke="black" stroke-width="0.358329"/>
<path d="M65.6889 44.9709L43.9302 57.4045L87.4477 83.3078L43.9302 109.211L65.6889 121.645L109.206 95.7413L152.724 121.645L174.483 109.211L130.965 83.3078L174.483 57.4045L152.724 44.9709L109.206 70.8742L65.6889 44.9709Z" fill="white" stroke="black" stroke-width="0.358329"/>
<path d="M152.723 121.644L109.205 95.7406L109.205 147.547L152.724 172.414L152.723 121.644Z" fill="#4C8046" stroke="black" stroke-width="0.358329"/>
<path d="M43.9298 109.21L0.412231 135.114L43.9298 159.981L87.4473 135.114L43.9298 109.21Z" fill="white" stroke="black" stroke-width="0.358329"/>
<path d="M65.6883 121.644L109.206 95.7411L109.206 147.548L65.6883 172.415L65.6883 121.644Z" fill="#A8A8A8" stroke="black" stroke-width="0.358329"/>
<g filter="url(#filter5_i_212_8319)">
<path d="M109.206 197.282V222.149L65.6885 197.282V247.016L43.9298 234.582V184.848L0.412231 159.936V135.114L43.9298 159.981V109.21L65.6885 121.644V172.414L109.206 197.282Z" fill="#4C8046"/>
</g>
<path d="M109.206 197.282V222.149L65.6885 197.282V247.016L43.9298 234.582V184.848L0.412231 159.936V135.114L43.9298 159.981V109.21L65.6885 121.644V172.414L109.206 197.282Z" stroke="black" stroke-width="0.358329"/>
<defs>
<filter id="filter0_i_212_8319" x="130.786" y="57.0891" width="44.5925" height="79.7734" filterUnits="userSpaceOnUse" color-interpolation-filters="sRGB">
<feFlood flood-opacity="0" result="BackgroundImageFix"/>
<feBlend mode="normal" in="SourceGraphic" in2="BackgroundImageFix" result="shape"/>
<feColorMatrix in="SourceAlpha" type="matrix" values="0 0 0 0 0 0 0 0 0 0 0 0 0 0 0 0 0 0 127 0" result="hardAlpha"/>
<feOffset dx="0.716658" dy="1.43332"/>
<feGaussianBlur stdDeviation="3.58329"/>
<feComposite in2="hardAlpha" operator="arithmetic" k2="-1" k3="1"/>
<feColorMatrix type="matrix" values="0 0 0 0 0 0 0 0 0 0 0 0 0 0 0 0 0 0 0.25 0"/>
<feBlend mode="normal" in2="shape" result="effect1_innerShadow_212_8319"/>
</filter>
<filter id="filter1_i_212_8319" x="109.027" y="172.106" width="44.5929" height="76.6528" filterUnits="userSpaceOnUse" color-interpolation-filters="sRGB">
<feFlood flood-opacity="0" result="BackgroundImageFix"/>
<feBlend mode="normal" in="SourceGraphic" in2="BackgroundImageFix" result="shape"/>
<feColorMatrix in="SourceAlpha" type="matrix" values="0 0 0 0 0 0 0 0 0 0 0 0 0 0 0 0 0 0 127 0" result="hardAlpha"/>
<feOffset dx="0.716658" dy="1.43332"/>
<feGaussianBlur stdDeviation="3.58329"/>
<feComposite in2="hardAlpha" operator="arithmetic" k2="-1" k3="1"/>
<feColorMatrix type="matrix" values="0 0 0 0 0 0 0 0 0 0 0 0 0 0 0 0 0 0 0.25 0"/>
<feBlend mode="normal" in2="shape" result="effect1_innerShadow_212_8319"/>
</filter>
<filter id="filter2_i_212_8319" x="43.7511" y="57.0891" width="44.5925" height="79.7734" filterUnits="userSpaceOnUse" color-interpolation-filters="sRGB">
<feFlood flood-opacity="0" result="BackgroundImageFix"/>
<feBlend mode="normal" in="SourceGraphic" in2="BackgroundImageFix" result="shape"/>
<feColorMatrix in="SourceAlpha" type="matrix" values="0 0 0 0 0 0 0 0 0 0 0 0 0 0 0 0 0 0 127 0" result="hardAlpha"/>
<feOffset dx="0.716658" dy="1.43332"/>
<feGaussianBlur stdDeviation="3.58329"/>
<feComposite in2="hardAlpha" operator="arithmetic" k2="-1" k3="1"/>
<feColorMatrix type="matrix" values="0 0 0 0 0 0 0 0 0 0 0 0 0 0 0 0 0 0 0.25 0"/>
<feBlend mode="normal" in2="shape" result="effect1_innerShadow_212_8319"/>
</filter>
<filter id="filter3_i_212_8319" x="65.5098" y="172.107" width="44.5926" height="76.6523" filterUnits="userSpaceOnUse" color-interpolation-filters="sRGB">
<feFlood flood-opacity="0" result="BackgroundImageFix"/>
<feBlend mode="normal" in="SourceGraphic" in2="BackgroundImageFix" result="shape"/>
<feColorMatrix in="SourceAlpha" type="matrix" values="0 0 0 0 0 0 0 0 0 0 0 0 0 0 0 0 0 0 127 0" result="hardAlpha"/>
<feOffset dx="0.716658" dy="1.43332"/>
<feGaussianBlur stdDeviation="3.58329"/>
<feComposite in2="hardAlpha" operator="arithmetic" k2="-1" k3="1"/>
<feColorMatrix type="matrix" values="0 0 0 0 0 0 0 0 0 0 0 0 0 0 0 0 0 0 0.25 0"/>
<feBlend mode="normal" in2="shape" result="effect1_innerShadow_212_8319"/>
</filter>
<filter id="filter4_i_212_8319" x="109.027" y="108.902" width="109.869" height="139.856" filterUnits="userSpaceOnUse" color-interpolation-filters="sRGB">
<feFlood flood-opacity="0" result="BackgroundImageFix"/>
<feBlend mode="normal" in="SourceGraphic" in2="BackgroundImageFix" result="shape"/>
<feColorMatrix in="SourceAlpha" type="matrix" values="0 0 0 0 0 0 0 0 0 0 0 0 0 0 0 0 0 0 127 0" result="hardAlpha"/>
<feOffset dx="0.716658" dy="1.43332"/>
<feGaussianBlur stdDeviation="3.58329"/>
<feComposite in2="hardAlpha" operator="arithmetic" k2="-1" k3="1"/>
<feColorMatrix type="matrix" values="0 0 0 0 0 0 0 0 0 0 0 0 0 0 0 0 0 0 0.25 0"/>
<feBlend mode="normal" in2="shape" result="effect1_innerShadow_212_8319"/>
</filter>
<filter id="filter5_i_212_8319" x="0.233032" y="108.902" width="109.869" height="139.856" filterUnits="userSpaceOnUse" color-interpolation-filters="sRGB">
<feFlood flood-opacity="0" result="BackgroundImageFix"/>
<feBlend mode="normal" in="SourceGraphic" in2="BackgroundImageFix" result="shape"/>
<feColorMatrix in="SourceAlpha" type="matrix" values="0 0 0 0 0 0 0 0 0 0 0 0 0 0 0 0 0 0 127 0" result="hardAlpha"/>
<feOffset dx="0.716658" dy="1.43332"/>
<feGaussianBlur stdDeviation="3.58329"/>
<feComposite in2="hardAlpha" operator="arithmetic" k2="-1" k3="1"/>
<feColorMatrix type="matrix" values="0 0 0 0 0 0 0 0 0 0 0 0 0 0 0 0 0 0 0.25 0"/>
<feBlend mode="normal" in2="shape" result="effect1_innerShadow_212_8319"/>
</filter>
</defs>
</svg>
