<svg width="212" height="251" viewBox="0 0 212 251" fill="none" xmlns="http://www.w3.org/2000/svg">
<path d="M169 105.402L127 130.402L169 154.402L211 130.402L169 105.402Z" fill="white" stroke="black" stroke-width="0.2"/>
<path d="M127 80.4023L169 55.4023L169 105.402L127 130.402L127 80.4023Z" fill="#C9C9C9"/>
<path d="M148 190.403L106 166.403L106 214.403L148 238.403L148 190.403Z" fill="#8C8C8C"/>
<path d="M85.0001 80.4023L43.0002 55.4023L43.0002 105.402L85.0001 130.402L85.0001 80.4023Z" fill="#8C8C8C"/>
<path d="M64.0003 190.402L106 166.402L106 214.402L64.0002 238.402L64.0003 190.402Z" fill="#C9C9C9"/>
<path d="M106 142.402L64 166.402L106 190.402L148 166.402L106 142.402Z" fill="white"/>
<path d="M106 190.402V214.402L148 190.402V238.402L169 226.402V178.402L211 154.402V130.402L169 154.402V105.402L148 117.402V166.402L106 190.402Z" fill="#C9C9C9"/>
<path d="M64 43.4024L43.0001 55.4023L85.0001 80.4023L43.0001 105.402L64.0001 117.402L106 92.4023L148 117.402L169 105.402L127 80.4024L169 55.4023L148 43.4023L106 68.4023L64 43.4024Z" fill="white" stroke="black" stroke-width="0.2"/>
<path d="M148 117.402L105.999 92.402L105.999 142.402L148 166.402L148 117.402Z" fill="#8C8C8C"/>
<path d="M43 105.402L1 130.402L43 154.402L85 130.402L43 105.402Z" fill="white" stroke="black" stroke-width="0.2"/>
<path d="M64.0001 117.402L106 92.4023L106 142.402L64.0001 166.402L64.0001 117.402Z" fill="#C9C9C9"/>
<path d="M106 190.402V214.402L64 190.402V238.402L43 226.402V178.402L1 154.359V130.402L43 154.402V105.402L64 117.402V166.402L106 190.402Z" fill="#8C8C8C"/>
</svg>
