<svg xmlns:inkscape="http://www.inkscape.org/namespaces/inkscape" xmlns:sodipodi="http://sodipodi.sourceforge.net/DTD/sodipodi-0.dtd" xmlns="http://www.w3.org/2000/svg" xmlns:svg="http://www.w3.org/2000/svg" height="533.33221" width="533.33319" viewBox="-116.80905 -194.68125 449.93103 778.72337" id="svg13" fill="none" sodipodi:docname="WhatsApp-Logo.svg" inkscape:version="1.2.2 (b0a84865, 2022-12-01)"><defs id="defs7"><linearGradient x1="0" y1="0" x2="1" y2="0" gradientUnits="userSpaceOnUse" gradientTransform="matrix(0,-778.72437,778.72437,0,108.15603,584.04215)" spreadMethod="pad" id="a"><stop offset="0" stop-color="#25cf43" id="stop2"></stop><stop offset="1" stop-color="#61fd7d" id="stop4"></stop></linearGradient></defs><path d="m -104.17544,-194.29857 c -17.36662,0.61733 -39.74923,1.97599 -49.92254,4.02932 -15.5293,3.13599 -30.19459,7.89065 -42.39056,14.10663 -14.3293,7.30265 -27.17194,16.61996 -38.26124,27.69193 -11.11464,11.09331 -20.46928,23.94794 -27.80126,38.29857 -6.19866,12.130638 -10.95064,26.706602 -14.09997,42.147897 -2.09466,10.275974 -3.47999,32.825251 -4.10799,50.303874 a 700.27158,700.27158 0 0 0 -0.38533,20.6532816 l -0.0613,383.4337074 c 0,4.24666 0.12934,13.49463 0.38267,20.64662 0.61733,17.36529 1.976,39.7479 4.03066,49.9212 3.13466,15.52797 7.89064,30.1946 14.1053,42.39056 7.30398,14.33064 16.61995,27.1706 27.69193,38.26124 11.0933,11.11331 23.94927,20.46795 38.29857,27.80127 12.13197,6.19731 26.70793,10.95064 42.14789,14.09996 10.27598,2.09466 32.82659,3.47999 50.30521,4.10666 7.141305,0.256 16.387955,0.38666 20.651945,0.38666 l 383.433705,0.0613 c 4.24799,0 13.49597,-0.128 20.64529,-0.38267 17.36662,-0.61866 39.75056,-1.97599 49.92254,-4.03066 15.52929,-3.13599 30.19592,-7.89198 42.39056,-14.10529 14.3293,-7.30399 27.17193,-16.6213 38.26124,-27.69193 11.1133,-11.09464 20.46795,-23.94794 27.80126,-38.29858 6.19732,-12.13197 10.95197,-26.7066 14.09997,-42.14789 2.09599,-10.27597 3.47999,-32.82792 4.10799,-50.30521 0.256,-7.14265 0.38533,-16.38796 0.38533,-20.65195 l 0.0627,-383.4337042 c 0,-4.2479894 -0.12933,-13.4959658 -0.38399,-20.6466148 -0.61867,-17.36529 -1.976,-39.747901 -4.03066,-49.921209 -3.13466,-15.529294 -7.89065,-30.194591 -14.1053,-42.390562 -7.30265,-14.33063 -16.62129,-27.17193 -27.6906,-38.26257 -11.09464,-11.11197 -23.9506,-20.46795 -38.2999,-27.79993 -12.13197,-6.19865 -26.7066,-10.95197 -42.1479,-14.09996 -10.27597,-2.09467 -32.82658,-3.48 -50.30387,-4.10666 -7.14398,-0.25733 -16.3893,-0.38667 -20.65328,-0.38667 l -383.433715,-0.0613 a 699.75825,699.75825 0 0 0 -20.645275,0.38267" fill="url(#a)" id="path9" style="fill:url(#a);stroke-width:1.33333"></path><path d="m 243.14916,245.93234 c -6.936,-3.47 -41.036,-20.245 -47.395,-22.558 -6.357,-2.314 -10.98,-3.471 -15.604,3.47 -4.624,6.942 -17.916,22.559 -21.963,27.187 -4.045,4.627 -8.09,5.207 -15.026,1.735 -6.936,-3.47 -29.284,-10.792 -55.775995,-34.415 -20.62,-18.384 -34.54,-41.092 -38.586,-48.033 -4.045,-6.942 -0.43,-10.694 3.043,-14.151 3.119,-3.105 6.935,-8.097 10.403,-12.147 3.468,-4.05 4.624,-6.941 6.936,-11.568 2.312,-4.628 1.156,-8.677 -0.58,-12.148 -1.732,-3.47 -15.603,-37.598 -21.383,-51.481 -5.63,-13.52 -11.348,-11.69 -15.605,-11.903 -4.042,-0.201 -8.67,-0.244 -13.294,-0.244 -4.624,0 -12.1370005,1.736 -18.49600045,8.676 -6.35700005,6.942 -24.27399955,23.718 -24.27399955,57.844 0,34.128 24.85299955,67.099 28.3199995,71.727 3.469,4.628 48.9090005,74.663 118.4849955,104.696 16.548,7.144 29.468,11.41 39.54,14.607 16.616,5.276 31.736,4.532 43.687,2.746 13.325,-1.99 41.036,-16.774 46.816,-32.97 5.778,-16.196 5.778,-30.08 4.045,-32.971 -1.733,-2.892 -6.357,-4.628 -13.293,-8.099 m -126.554,172.739 h -0.093 c -41.399995,-0.016 -82.004995,-11.133 -117.42799545,-32.148 l -8.42500005,-5 -87.3219995,22.9 23.308,-85.11 -5.486,-8.726 c -23.094995,-36.723 -35.291995,-79.167 -35.274995,-122.747 0.05,-127.168 103.549995,-230.628 230.81299,-230.628 61.624,0.024 119.552,24.047 163.112,67.642 43.56001,43.596 67.53601,101.545 67.51201,163.173 -0.052,127.177 -103.55001,230.644 -230.71601,230.644 M 312.95317,-8.2736596 C 260.54516,-60.72566 190.84916,-89.62566 116.59316,-89.65466 c -152.999995,0 -277.52399,124.476 -277.58599,277.477 -0.02,48.908 12.762,96.65 37.052,138.73 l -39.38,143.797 147.151995,-38.587 c 40.544,22.107 86.192,33.756 132.649995,33.776 h 0.116 c 152.985,0 277.52001,-124.492 277.58201,-277.495 0.028,-74.146 -28.817,-143.866 -81.226,-196.3169996" fill="#ffffff" fill-rule="evenodd" id="path11"></path></svg>